SplineFontDB: 3.0
FontName: Coda
FullName: Coda
FamilyName: Coda
Weight: Book
Copyright: Copyright (c) 2011 by vernon adams. All rights reserved.
Version: 1.000;
ItalicAngle: 0
UnderlinePosition: -103
UnderlineWidth: 102
Ascent: 1638
Descent: 410
sfntRevision: 0x00010000
LayerCount: 2
Layer: 0 0 "Back"  1
Layer: 1 0 "Fore"  0
NeedsXUIDChange: 1
XUID: [1021 14 500265001 3631042]
FSType: 256
OS2Version: 0
OS2_WeightWidthSlopeOnly: 0
OS2_UseTypoMetrics: 1
CreationTime: 1313148003
ModificationTime: 1317912063
PfmFamily: 33
TTFWeight: 400
TTFWidth: 5
LineGap: 0
VLineGap: 0
Panose: 2 11 5 0 0 0 0 0 0 4
OS2TypoAscent: 2154
OS2TypoAOffset: 0
OS2TypoDescent: -691
OS2TypoDOffset: 0
OS2TypoLinegap: 0
OS2WinAscent: 2154
OS2WinAOffset: 0
OS2WinDescent: 691
OS2WinDOffset: 0
HheadAscent: 2154
HheadAOffset: 0
HheadDescent: -691
HheadDOffset: 0
OS2SubXSize: 1331
OS2SubYSize: 1228
OS2SubXOff: 0
OS2SubYOff: 153
OS2SupXSize: 1331
OS2SupYSize: 1228
OS2SupXOff: 0
OS2SupYOff: 716
OS2StrikeYSize: 102
OS2StrikeYPos: 780
OS2Vendor: 'newt'
OS2CodePages: 20000093.00000000
OS2UnicodeRanges: 00000007.00000000.00000000.00000000
Lookup: 258 0 0 "'kern' Horizontal Kerning in Latin lookup 0"  {"'kern' Horizontal Kerning in Latin lookup 0 subtable" [304,0,0] } ['kern' ('DFLT' <'dflt' > 'latn' <'dflt' > ) ]
MarkAttachClasses: 1
DEI: 91125
KernClass2: 3 2 "'kern' Horizontal Kerning in Latin lookup 0 subtable" 
 3 T V
 0 
 11 a c e g o q
 0 {} 0 {} 0 {} -82 {} 0 {} 0 {}
LangName: 1033 "" "" "Regular" "1.000;;Coda" "" "Version 1.000;" "" "Coda is a trademark of vernon adams." "vernon adams" "vernon adams" "Copyright (c) 2011 by vernon adams. All rights reserved." "" "newtypography.co.uk" "" "http://scripts.sil.org/OFL" "" "Coda" "Book" "Coda" 
GaspTable: 1 65535 2
Encoding: UnicodeBmp
Compacted: 1
UnicodeInterp: none
NameList: Adobe Glyph List
DisplaySize: -48
AntiAlias: 1
FitToEm: 1
WidthSeparation: 360
WinInfo: 0 27 11
BeginPrivate: 0
EndPrivate
Grid
-2048 1091 m 0
 4096 1091 l 0
-2048 -24 m 0

StartChar: exclam
Encoding: 33 33 5
Width: 495
GlyphClass: 2
Flags: HMW
LayerCount: 2
Fore
SplineSet
148 0 m 1
 149 228 l 1
 345 228 l 1
 346 0 l 1
 148 0 l 1
138 1418 m 0
 138 1510 179 1556 262 1556 c 0
 295 1556 318 1545 333 1522 c 128
 348 1499 355 1444 355 1356 c 128
 355 1268 328 993 273 528 c 0
 270 508 261 498 246 498 c 128
 212 498 218 542 214 581 c 128
 190 796 188 848 161 1124 c 128
 146 1280 138 1378 138 1418 c 0
EndSplineSet
EndChar

StartChar: quotedbl
Encoding: 34 34 6
Width: 685
GlyphClass: 2
Flags: HMW
LayerCount: 2
Fore
SplineSet
118 1363 m 128
 118 1459 128 1500 205 1500 c 0
 262 1500 291 1459 291 1378 c 128
 291 1297 281 1208 260 1112 c 128
 239 1016 228 960 225 946 c 128
 222 932 217 925 209 925 c 128
 189 925 191 934 185 955 c 128
 181 968 169 1025 149 1124 c 128
 129 1223 118 1302 118 1363 c 128
504 942 m 128
 504 929 503 925 489 925 c 128
 481 925 477 927 475 930 c 128
 473 933 459 983 435 1080 c 128
 411 1177 399 1258 399 1323 c 128
 399 1388 401 1428 406 1444 c 0
 417 1481 440 1500 476 1500 c 128
 569 1500 573 1461 573 1346 c 128
 573 1275 561 1191 538 1093 c 0
 515 997 504 947 504 942 c 128
EndSplineSet
EndChar

StartChar: numbersign
Encoding: 35 35 7
Width: 1424
GlyphClass: 2
Flags: HMW
LayerCount: 2
Fore
SplineSet
1275 419 m 1
 991 419 l 1
 909 0 l 1
 737 0 l 1
 819 419 l 1
 492 419 l 1
 408 0 l 1
 235 0 l 1
 316 419 l 1
 36 419 l 1
 68 568 l 1
 346 568 l 1
 425 972 l 1
 150 972 l 1
 182 1135 l 1
 459 1135 l 1
 533 1499 l 1
 712 1499 l 1
 638 1135 l 1
 958 1135 l 1
 1030 1499 l 1
 1203 1499 l 1
 1131 1135 l 1
 1409 1135 l 1
 1382 972 l 1
 1098 972 l 1
 1020 568 l 1
 1303 568 l 1
 1275 419 l 1
524 568 m 1
 847 568 l 1
 926 972 l 1
 605 972 l 1
 524 568 l 1
EndSplineSet
EndChar

StartChar: dollar
Encoding: 36 36 8
Width: 1200
GlyphClass: 2
Flags: HMW
LayerCount: 2
Fore
SplineSet
567 1632 m 1
 641 1632 l 1
 641 -115 l 1
 567 -115 l 1
 567 1632 l 1
611 173 m 0
 824 173 901 227 901 416 c 128
 901 545 893 600 823 649 c 128
 792 671 718 685 603 691 c 128
 488 697 410 705 369 716 c 0
 206 759 125 882 125 1083 c 0
 125 1262 162 1376 235 1427 c 128
 308 1478 412 1503 547 1503 c 128
 682 1503 783 1494 849 1477 c 0
 991 1438 1062 1314 1062 1106 c 1
 876 1106 l 1
 875 1211 848 1279 796 1308 c 0
 759 1329 686 1340 579 1340 c 128
 472 1340 401 1327 369 1302 c 128
 337 1277 321 1214 321 1111 c 128
 321 1008 338 943 371 916 c 128
 404 889 478 870 593 862 c 128
 708 854 798 841 864 823 c 0
 1012 783 1086 653 1086 434 c 0
 1086 253 1038 132 943 70 c 1
 886 35 827 15 763 10 c 128
 699 5 638 3 580 3 c 0
 251 3 108 96 108 419 c 2
 108 436 l 1
 294 436 l 1
 293 430 293 424 293 418 c 2
 293 402 l 2
 293 268 347 195 456 182 c 0
 514 176 566 173 611 173 c 0
EndSplineSet
EndChar

StartChar: percent
Encoding: 37 37 9
Width: 2311
GlyphClass: 2
Flags: HMW
LayerCount: 2
Fore
SplineSet
136 1129 m 2
 136 1242 158 1318 202 1359 c 128
 246 1400 339 1420 482 1420 c 128
 625 1420 719 1399 765 1358 c 128
 811 1317 833 1241 833 1129 c 2
 833 795 l 2
 833 682 810 605 765 564 c 128
 720 523 626 503 483 503 c 128
 340 503 246 523 202 564 c 128
 158 605 136 682 136 795 c 2
 136 1129 l 2
483 1297 m 0
 382 1297 325 1291 311 1279 c 0
 292 1264 283 1214 283 1131 c 2
 283 782 l 2
 283 705 290 660 305 649 c 0
 324 634 383 627 483 627 c 256
 583 627 640 633 655 644 c 0
 674 659 683 705 683 782 c 2
 683 1131 l 2
 683 1214 676 1262 661 1274 c 0
 642 1289 583 1297 483 1297 c 0
1488 752 m 2
 1488 865 1511 941 1555 982 c 128
 1599 1023 1692 1043 1835 1043 c 128
 1978 1043 2072 1023 2117 982 c 128
 2162 941 2184 865 2184 752 c 2
 2184 418 l 2
 2184 305 2162 228 2117 187 c 128
 2072 146 1985 126 1855 126 c 128
 1725 126 1639 146 1595 187 c 128
 1551 228 1515 305 1488 418 c 1
 1488 752 l 2
1835 920 m 256
 1735 920 1678 914 1663 902 c 0
 1644 887 1635 837 1635 754 c 1
 1676 405 l 1
 1676 328 1683 283 1696 272 c 0
 1713 257 1766 250 1855 250 c 0
 1945 250 1996 256 2009 267 c 0
 2026 282 2035 328 2035 405 c 2
 2035 754 l 2
 2035 837 2028 885 2013 897 c 0
 1994 912 1935 920 1835 920 c 256
1431 1557 m 1
 1132 -38 l 1
 971 -38 l 1
 1266 1557 l 1
 1431 1557 l 1
EndSplineSet
EndChar

StartChar: ampersand
Encoding: 38 38 10
Width: 1410
GlyphClass: 2
Flags: HMW
LayerCount: 2
Fore
SplineSet
327 831 m 1
 228 845 178 966 178 1193 c 0
 178 1525.63671875 364.536132812 1533 700 1533 c 128
 1022 1533 1206 1523.29980469 1206 1312 c 128
 1206 1269 1203 1228 1198 1189 c 1
 1038 1189 l 1
 1038 1368.29980469 1022 1375 718 1375 c 128
 456 1375 374 1344.29980469 374 1268.29980469 c 130
 374 1046.29980469 l 130
 374 929.733398438 389.288085938 890 480 890 c 2
 1038 890 l 1
 1038 1014.29980469 l 1
 1208 1014.29980469 l 1
 1208 891 l 1
 1348 891 l 1
 1348 752 l 1
 1208 752 l 1
 1207.10253906 354.299804688 l 2
 1201.390625 43.8828125 1206.93945312 -24 700 -24 c 128
 292.852539062 -24 128 -9.232421875 128 408 c 0
 128 585 161 709 227 778 c 0
 256 809 290 827 327 831 c 1
1038 228.299804688 m 2
 1038 752 l 1
 477 752 l 2
 340.665039062 752 322.813476562 657.9453125 323.11328125 482.299804688 c 2
 324.703125 254.299804688 l 2
 325.373046875 158.24609375 394.84375 132 699 132 c 128
 963.592773438 132 1038 160.981445312 1038 228.299804688 c 2
EndSplineSet
EndChar

StartChar: quotesingle
Encoding: 39 39 11
Width: 403
GlyphClass: 2
Flags: HMW
LayerCount: 2
Fore
SplineSet
118 1363 m 128
 118 1459 128 1500 205 1500 c 0
 262 1500 291 1459 291 1378 c 128
 291 1297 281 1208 260 1112 c 128
 239 1016 228 960 225 946 c 128
 222 932 217 925 209 925 c 128
 189 925 191 934 185 955 c 128
 181 968 169 1025 149 1124 c 128
 129 1223 118 1302 118 1363 c 128
EndSplineSet
EndChar

StartChar: parenleft
Encoding: 40 40 12
Width: 642
GlyphClass: 2
Flags: HMW
LayerCount: 2
Fore
SplineSet
136 816 m 0
 136 886 143 970 157 1068 c 0
 194 1325 269 1512 381 1627 c 0
 442 1690 516 1722 604 1722 c 2
 690 1722 l 1
 690 1577 l 1
 629 1577 l 2
 553 1577 489 1523 438 1416 c 0
 361 1255 322 1031 322 745 c 0
 322 683 331 592 350 473 c 128
 369 354 402 248 447 156 c 128
 492 64 553 19 629 19 c 2
 690 19 l 1
 690 -125 l 1
 604 -125 l 2
 490 -125 394 -69 317 42 c 0
 196 217 136 475 136 816 c 0
EndSplineSet
EndChar

StartChar: parenright
Encoding: 41 41 13
Width: 634
GlyphClass: 2
Flags: HMW
LayerCount: 2
Fore
SplineSet
-48 -125 m 1
 -48 19 l 1
 14 19 l 2
 151 19 245 181 296 504 c 0
 312 603 320 696 320 785 c 128
 320 874 311 980 292 1104 c 128
 273 1228 241 1337 195 1433 c 128
 149 1529 89 1577 14 1577 c 2
 -48 1577 l 1
 -48 1722 l 1
 38 1722 l 2
 201 1722 325 1606 412 1374 c 0
 475 1203 507 1011 507 797 c 128
 507 583 475 389 412 214 c 0
 329 -12 205 -125 38 -125 c 2
 -48 -125 l 1
EndSplineSet
EndChar

StartChar: asterisk
Encoding: 42 42 14
Width: 1007
GlyphClass: 2
Flags: HMW
LayerCount: 2
Fore
SplineSet
335 574 m 0
 299 574 256 612 256 648 c 128
 256 695 281 733 303 766 c 128
 359 850 437 924 502 997 c 1
 478 990 429 975 353 951 c 128
 277 927 216 915 169 915 c 0
 102 915 68 946 68 1006 c 128
 68 1066 101 1096 167 1096 c 0
 214 1096 275 1084 351 1059 c 128
 427 1034 477 1019 502 1012 c 1
 338 1191 256 1299 256 1334 c 128
 256 1391 284 1436 333 1436 c 128
 380 1436 408 1390 425 1353 c 128
 470 1259 489 1132 518 1022 c 1
 535 1086 541 1127 561 1209 c 128
 577 1278 622 1436 697 1436 c 128
 735 1436 777 1403 777 1353 c 128
 777 1314 750 1274 730 1244 c 128
 675 1160 600 1084 535 1012 c 1
 558 1019 609 1034 685 1059 c 128
 761 1084 821 1096 866 1096 c 0
 932 1096 965 1066 965 1006 c 128
 965 946 931 915 862 915 c 0
 813 915 752 927 679 951 c 128
 606 975 558 990 535 997 c 1
 696 818 777 710 777 674 c 128
 777 617 748 574 699 574 c 128
 655 574 628 621 611 657 c 128
 566 752 547 878 518 988 c 1
 514 970 509 947 503 920 c 0
 457 689 401 574 335 574 c 0
EndSplineSet
EndChar

StartChar: plus
Encoding: 43 43 15
Width: 867
GlyphClass: 2
Flags: HMW
LayerCount: 2
Fore
SplineSet
523 1117 m 1
 523 754 l 1
 831 754 l 1
 831 585 l 1
 523 585 l 1
 523 223 l 1
 357 223 l 1
 357 585 l 1
 50 585 l 1
 50 754 l 1
 357 754 l 1
 357 1117 l 1
 523 1117 l 1
EndSplineSet
EndChar

StartChar: comma
Encoding: 44 44 16
Width: 498
GlyphClass: 2
Flags: HMW
LayerCount: 2
Fore
SplineSet
260 309 m 128
 352 309 401 223 401 130 c 128
 401 -25 332 -139 236 -200 c 128
 203 -221 173 -231 145 -231 c 128
 117 -231 97 -230 85 -227 c 1
 85 -159 l 1
 122 -159 160 -145 199 -118 c 128
 238 -91 257 -59 257 -20 c 2
 257 0 l 1
 174 0 113 68 113 154 c 128
 113 244 170 309 260 309 c 128
EndSplineSet
EndChar

StartChar: hyphen
Encoding: 45 45 17
Width: 828
GlyphClass: 2
Flags: HMW
LayerCount: 2
Fore
SplineSet
710 538 m 5
 123 538 l 5
 123 677 l 5
 710 677 l 5
 710 538 l 5
EndSplineSet
EndChar

StartChar: period
Encoding: 46 46 18
Width: 477
GlyphClass: 2
Flags: HMW
LayerCount: 2
Fore
SplineSet
241 -37 m 0
 157 -37 100 31 100 117 c 0
 100 202 149 271 241 271 c 0
 324 271 381 203 381 117 c 0
 381 34 333 -37 241 -37 c 0
EndSplineSet
EndChar

StartChar: slash
Encoding: 47 47 19
Width: 588
GlyphClass: 2
Flags: HMW
LayerCount: 2
Fore
SplineSet
546 1499 m 1
 225 0 l 1
 52 0 l 1
 373 1499 l 1
 546 1499 l 1
EndSplineSet
EndChar

StartChar: zero
Encoding: 48 48 20
Width: 1372
GlyphClass: 2
Flags: HMW
LayerCount: 2
Fore
SplineSet
1225 519.299804688 m 2
 1225 129.302734375 1138 -24 689 -24 c 0
 241 -24 153 130.145507812 153 519.299804688 c 2
 153 975.299804688 l 2
 153 1375.09375 255 1523 689 1523 c 0
 1122 1523 1225 1374.19726562 1225 975.299804688 c 2
 1225 519.299804688 l 2
658 1366 m 128
 431 1366 345 1308.84375 345 1200.59960938 c 2
 345 295.599609375 l 2
 345 188.827148438 405 139 685 139 c 0
 940 139 1028 190.936523438 1028 295.299804688 c 2
 1028 1193.29980469 l 2
 1028 1319.21777344 919 1366 658 1366 c 128
EndSplineSet
EndChar

StartChar: one
Encoding: 49 49 21
Width: 588
GlyphClass: 2
Flags: HMW
LayerCount: 2
Back
SplineSet
422 128 m 5
 221 128 l 5
 221 1627 l 5
 422 1627 l 5
 422 128 l 5
EndSplineSet
Fore
SplineSet
48 1360 m 1
 145 1360 214 1405.69824219 255 1499 c 1
 422 1499 l 1
 422 0 l 1
 221 0 l 1
 221 1269 l 1
 48 1259 l 1
 48 1360 l 1
EndSplineSet
EndChar

StartChar: two
Encoding: 50 50 22
Width: 1111
GlyphClass: 2
Flags: HMW
LayerCount: 2
Fore
SplineSet
544 1524 m 0
 860.443359375 1524 995.166015625 1474.55078125 994.015625 1149.59960938 c 2
 993.633789062 1047.59960938 l 2
 991.517578125 494.186523438 289.73828125 561.477539062 289.73828125 200.159179688 c 2
 290 143.599609375 l 1
 970 143.599609375 l 1
 970 1 l 1
 105 1 l 1
 105 167.599609375 l 2
 105 689.599609375 807 605.599609375 807 1039.59960938 c 2
 807 1175.59960938 l 2
 807 1355.70703125 779 1380.29980469 563 1380.29980469 c 0
 344.55859375 1380.29980469 288.219726562 1373.18457031 278.598632812 1187.59960938 c 1
 285 1120 l 1
 118 1135 l 1
 113.243164062 1167.84082031 107.052734375 1209.42871094 107.052734375 1243.41601562 c 0
 107.052734375 1465.23046875 290.245117188 1524 544 1524 c 0
EndSplineSet
EndChar

StartChar: three
Encoding: 51 51 23
Width: 1169
GlyphClass: 2
Flags: HMW
LayerCount: 2
Fore
SplineSet
1031.35644531 1145.29980469 m 0
 1031.35644531 841.299804688 960.856445312 775.299804688 801.356445312 763 c 1
 974.856445312 739.299804688 1031.35644531 651.299804688 1031.35644531 360 c 128
 1031.35644531 37.333984375 853.759765625 -24 521.356445312 -24 c 128
 259.421875 -24 92 20.587890625 92 223.334960938 c 0
 92 268.62890625 97.7314453125 313.418945312 101.356445312 356 c 1
 278.356445312 360 l 1
 277.131835938 239.299804688 l 2
 276.14453125 142.022460938 351.590820312 119 549.356445312 119 c 128
 777.467773438 119 834.299804688 136.541992188 834.6328125 253.299804688 c 2
 835.356445312 507.299804688 l 130
 836.533203125 695.9765625 751.447265625 699 445.356445312 699 c 1
 435.356445312 847 l 1
 471.659179688 847 506.741210938 846.662109375 540.037109375 846.662109375 c 0
 712.294921875 846.662109375 836.772460938 855.701171875 835.356445312 967.299804688 c 129
 834.426757812 1253.29980469 l 2
 834.08203125 1359.38183594 778.056640625 1380.29980469 563.356445312 1380.29980469 c 0
 337.963867188 1380.29980469 279.506835938 1355.78417969 279.01953125 1265.29980469 c 1
 283.356445312 1140 l 1
 111.356445312 1150 l 1
 108.454101562 1191.97460938 103.935546875 1235.91796875 103.935546875 1281.04296875 c 1
 103.935546875 1453.73046875 212.85546875 1523.29980469 576.853515625 1523.29980469 c 0
 903.055664062 1523.29980469 1031.35644531 1409.30175781 1031.35644531 1145.29980469 c 0
EndSplineSet
EndChar

StartChar: four
Encoding: 52 52 24
Width: 1072
GlyphClass: 2
Flags: HMW
LayerCount: 2
Back
SplineSet
872.5 128 m 5
 671.5 128 l 5
 671.5 1627 l 5
 872.5 1627 l 5
 872.5 128 l 5
EndSplineSet
Fore
SplineSet
672 392 m 1
 66 392 l 1
 66 544 l 1
 557 1499 l 1
 872 1499 l 1
 872 532 l 1
 1003 532 l 1
 1003 392 l 1
 872 392 l 5
 872 0 l 5
 672 0 l 1
 672 392 l 1
672 532 m 1
 672 1370 l 1
 273 532 l 1
 672 532 l 1
EndSplineSet
EndChar

StartChar: five
Encoding: 53 53 25
Width: 1240
GlyphClass: 2
Flags: HMW
LayerCount: 2
Fore
SplineSet
606.216796875 133 m 128
 839.94921875 133 925.274414062 158.065429688 925.216796875 277.299804688 c 130
 925.029296875 663.299804688 l 2
 925.622039776 783.15625 864.677557873 802 626.216796875 802 c 0
 445.216796875 802 369.216796875 794 353.216796875 641 c 1
 164.216796875 641 l 1
 164.216796875 1501 l 1
 1038.21679688 1501 l 1
 1028.21679688 1338 l 1
 379.216796875 1338 l 1
 351.216796875 813 l 1
 379.216796875 901.299804688 485.216796875 962 671.216796875 962 c 0
 1067.21679688 962 1116.21679688 817.299804688 1116.21679688 456 c 128
 1116.21679688 46.7890625 1005.21679688 -24 605.216796875 -24 c 128
 277.216796875 -24 148.967773438 55.720703125 155.216796875 341.299804688 c 2
 156.216796875 387 l 1
 342.216796875 397 l 1
 342.682617188 299.299804688 l 2
 343.387695312 151.359375 373.216796875 133 606.216796875 133 c 128
EndSplineSet
EndChar

StartChar: six
Encoding: 54 54 26
Width: 1302
GlyphClass: 2
Flags: HMWO
LayerCount: 2
Back
SplineSet
355 128 m 5
 158.3359375 128 l 1
 154 1627 l 5
 355 1627 l 5
 355 128 l 5
EndSplineSet
Fore
SplineSet
679 964 m 128
 1066 964 1174 901 1174 493 c 128
 1174 77 1100 -24 705 -24 c 128
 299 -24 157 44 157 459 c 2
 157 1101 l 2
 157 1417 281 1523 650 1523 c 128
 939 1523 1119 1484 1119 1270 c 0
 1119 1229 1112 1189 1108 1151 c 1
 943 1131 l 1
 942 1241 l 2
 943 1373 883 1380 668 1380 c 1
 406.834394904 1380 355 1351 355 1221 c 2
 355 783 l 1
 394.876923077 901 475.627692308 964 679 964 c 128
673 119 m 256
 959 119 981 156 981 274 c 2
 982 657 l 2
 982 770 924 801 671 801 c 128
 428.534591195 801 355 763 355 643 c 2
 355 290 l 2
 355 158 400.855799373 119 673 119 c 256
EndSplineSet
EndChar

StartChar: seven
Encoding: 55 55 27
Width: 793
GlyphClass: 2
Flags: HMW
LayerCount: 2
Fore
SplineSet
11 1339 m 1
 11 1499 l 1
 742 1499 l 1
 742 1327 l 1
 293 0 l 1
 95 0 l 1
 565 1339 l 1
 11 1339 l 1
EndSplineSet
EndChar

StartChar: eight
Encoding: 56 56 28
Width: 1267
GlyphClass: 2
Flags: HMW
LayerCount: 2
Fore
SplineSet
637 1523 m 0
 951 1523 1078 1442.26269531 1078 1145.29980469 c 128
 1078 967.08984375 1048 853.385742188 988 802 c 1
 1092 723.299804688 1153 611.299804688 1153 377.299804688 c 128
 1153 174.252929688 1125 52.9208984375 955 10 c 128
 882 -12 771 -24 625 -24 c 128
 479 -24 374 -15 309 4 c 128
 157 48 126 181 119 390 c 1
 119 587.80078125 169.770507812 719.879882812 302 802 c 1
 228.666992188 854.450195312 192 970.279296875 192 1147.29980469 c 128
 192 1445.07714844 323 1523 637 1523 c 0
311 261.299804688 m 2
 311 159.765625 334 128 630 128 c 128
 906 128 962.221679688 153.640625 962.149414062 261.299804688 c 2
 962 483.299804688 l 2
 962 569.482421875 947 679.856445312 921 698 c 1
 850 708 780 713 711 713 c 2
 574 713 l 2
 487 713 417 707 366 694 c 1
 330 659 311 583.00390625 311 466 c 2
 311 261.299804688 l 2
636 1366 m 0
 403.408203125 1366 376.469726562 1354.65917969 373.389648438 1273.30078125 c 2
 373 1071 l 130
 372.795898438 965.000976562 385 896 410 863 c 1
 861 863 l 1
 886 897 897.631835938 967.002929688 898 1072 c 130
 898.705078125 1273.29980469 l 2
 896.020507812 1354.29980469 870.516601562 1366 636 1366 c 0
EndSplineSet
EndChar

StartChar: nine
Encoding: 57 57 29
Width: 1302
GlyphClass: 2
Flags: HMW
LayerCount: 2
Fore
SplineSet
628 548 m 128
 241 548 133 609.260742188 133 1006 c 128
 133 1422 207 1523 602 1523 c 128
 1008 1523 1150 1455 1150 1040 c 2
 1150 422 l 2
 1150 88 1036 -24 694 -24 c 128
 383 -24 188 15 188 229 c 0
 188 270 195 310 199 348 c 1
 364 368 l 1
 365 258 l 1
 364 126 424 119 639 119 c 0
 901 119 953 148 953 278 c 2
 953 729 l 1
 913 611 832 548 628 548 c 128
634 1380 m 256
 348 1380 326.319335938 1343 326 1225 c 2
 325 855 l 2
 325 742 383 711 636 711 c 128
 880 711 954 749 954 869 c 2
 953 1209 l 2
 952.611328125 1340.99902344 907 1380 634 1380 c 256
EndSplineSet
EndChar

StartChar: colon
Encoding: 58 58 30
Width: 528
GlyphClass: 2
Flags: HMW
LayerCount: 2
Fore
SplineSet
270 925 m 0
 190 925 130 983 130 1079 c 0
 130 1173 180 1233 284 1233 c 128
 355 1233 410 1157 410 1079 c 0
 410 996 362 925 270 925 c 0
270 134 m 0
 190 134 130 192 130 288 c 0
 130 382 182 442 284 442 c 128
 355 442 410 366 410 288 c 0
 410 219 382 171 325 146 c 0
 308 138 290 134 270 134 c 0
EndSplineSet
EndChar

StartChar: semicolon
Encoding: 59 59 31
Width: 549
GlyphClass: 2
Flags: HMW
LayerCount: 2
Fore
SplineSet
285 439 m 128
 376 439 427 353 427 260 c 128
 427 106 357 -10 261 -70 c 128
 227 -91 197 -101 170 -101 c 128
 143 -101 123 -100 111 -97 c 1
 111 -29 l 1
 148 -29 186 -15 225 12 c 128
 264 39 283 71 283 110 c 2
 283 130 l 1
 199 130 138 199 138 285 c 128
 138 374 196 439 285 439 c 128
283 925 m 0
 200 925 143 994 143 1079 c 0
 143 1163 191 1233 283 1233 c 0
 366 1233 423 1165 423 1079 c 0
 423 996 375 925 283 925 c 0
EndSplineSet
EndChar

StartChar: less
Encoding: 60 60 32
Width: 876
GlyphClass: 2
Flags: HMW
LayerCount: 2
Fore
SplineSet
60 838 m 1
 773 1276 l 1
 773 1045 l 1
 234 766 l 1
 773 478 l 1
 773 257 l 1
 60 676 l 1
 60 838 l 1
EndSplineSet
EndChar

StartChar: equal
Encoding: 61 61 33
Width: 1119
GlyphClass: 2
Flags: HMW
LayerCount: 2
Fore
SplineSet
973 854 m 1
 973 668 l 1
 147 668 l 1
 147 854 l 1
 973 854 l 1
973 305 m 1
 147 305 l 1
 147 491 l 1
 973 491 l 1
 973 305 l 1
EndSplineSet
EndChar

StartChar: greater
Encoding: 62 62 34
Width: 876
GlyphClass: 2
Flags: HMW
LayerCount: 2
Fore
SplineSet
831 838 m 1
 831 676 l 1
 116 257 l 1
 116 478 l 1
 656 766 l 1
 116 1045 l 1
 116 1276 l 1
 831 838 l 1
EndSplineSet
EndChar

StartChar: question
Encoding: 63 63 35
Width: 712
GlyphClass: 2
Flags: HMW
LayerCount: 2
Fore
SplineSet
274 1534 m 0
 517 1534 638 1414 638 1175 c 0
 638 1059 587 941 484 822 c 1
 376 698.8828125 317 590.5390625 306 495 c 1
 224 495 l 1
 224 630 254 747 314 845 c 128
 400.418945312 986.151367188 445 1024.16796875 445 1163 c 0
 445 1288 383 1350 259 1350 c 0
 212 1350 139 1336 38 1308 c 1
 14 1473 l 1
 118 1514 205 1534 274 1534 c 0
158 0 m 1
 158 228 l 1
 355 228 l 1
 356 0 l 1
 158 0 l 1
EndSplineSet
EndChar

StartChar: at
Encoding: 64 64 36
Width: 2026
GlyphClass: 2
Flags: HMW
LayerCount: 2
Fore
SplineSet
646 1014 m 0
 646 1239 822 1266 1080 1266 c 0
 1339 1266 1468 1159 1468 944 c 2
 1468 215 l 1
 1653 215 1683 231 1700 380 c 128
 1705 425 1707 521 1707 670 c 128
 1707 1253 1617 1472 1051 1472 c 128
 492 1472 329 1221 329 659 c 128
 329 104 447 -184 974 -184 c 0
 1171 -184 1404 -132 1603 -77 c 1
 1651 -224 l 1
 1468 -304 1266 -344 1046 -344 c 128
 382 -344 139 -94 139 627 c 0
 139 1320 380 1635 1032 1635 c 0
 1732 1635 1895 1367 1895 662 c 128
 1895 241 1859 87 1508 87 c 0
 1406 87 1351 129 1342 212 c 1
 1319 111 1180 61 925 61 c 0
 664 61 583 141 583 410 c 128
 583 659 660 772 890 772 c 128
 992 772 1118 759 1271 732 c 1
 1271 959 l 2
 1271 1133 1199 1103 1038 1103 c 128
 900 1103 817 1127 817 992 c 128
 817 963 818 934 821 903 c 1
 658 903 l 1
 650 943 646 967 646 1014 c 0
966 204 m 128
 1105 204 1271 169 1271 311 c 2
 1271 624 l 1
 962 624 l 2
 777 624 765 613 765 438 c 128
 765 243 768 204 966 204 c 128
EndSplineSet
EndChar

StartChar: A
Encoding: 65 65 37
Width: 1297
GlyphClass: 2
Flags: HMW
LayerCount: 2
Fore
SplineSet
910 388 m 1
 363 388 l 1
 255 0 l 1
 65 0 l 1
 512 1499 l 1
 790 1499 l 1
 1224 0 l 1
 1021 0 l 1
 910 388 l 1
402 524 m 1
 872 524 l 1
 641 1363 l 1
 402 524 l 1
EndSplineSet
EndChar

StartChar: B
Encoding: 66 66 38
Width: 1368
GlyphClass: 2
Flags: HMW
LayerCount: 2
Back
SplineSet
1224.5 0 m 5
 1023.5 0 l 5
 1023.5 1499 l 5
 1224.5 1499 l 5
 1224.5 0 l 5
EndSplineSet
Fore
SplineSet
741 1499 m 2
 1025.34931507 1499 1179.99543379 1459 1178 1210 c 2
 1178 1048 l 2
 1178 862.989257812 1112 828 958 808 c 1
 1111.57735849 795 1224 708 1224 576 c 2
 1224 312 l 2
 1224 40 1102 0 839 0 c 2
 178 0 l 1
 178 1499 l 1
 741 1499 l 2
714 143 m 2
 949 143 1026 177 1026 240 c 2
 1026 590 l 2
 1026 706 940 739 700 739 c 2
 379 739 l 1
 379 143 l 1
 714 143 l 2
980 1264 m 2
 980 1344 911.72244898 1355 734 1355 c 2
 379 1355 l 1
 379 859 l 1
 683 859 l 2
 886 859 980 896 980 962 c 2
 980 1264 l 2
EndSplineSet
EndChar

StartChar: C
Encoding: 67 67 39
Width: 1383
GlyphClass: 2
Flags: HMW
LayerCount: 2
Back
SplineSet
349 0 m 5
 148 0 l 5
 148 1499 l 5
 349 1499 l 5
 349 0 l 5
EndSplineSet
Fore
SplineSet
148 1040.5 m 2
 148 1433.94461357 233 1524 652 1524 c 128
 1090.01269531 1524 1213.82714844 1486.95605469 1230 1060 c 1
 1057 1040 l 1
 1047 1176.29980469 l 2
 1030.90234375 1395.70996094 950.001953125 1380.29980469 667 1380.29980469 c 0
 428.250783699 1380.29980469 349 1362.29980469 349 1230.29980469 c 6
 349 272.5 l 6
 349 169.129493954 401.857908847 119 721 119 c 0
 969 119 1038.43945312 113.217773438 1047 281 c 2
 1057 477 l 1
 1230 467 l 1
 1224.19628906 60.75 1137.03125 -24 755 -24 c 0
 237 -24 148 56.2626953125 148 491.5 c 2
 148 1040.5 l 2
EndSplineSet
EndChar

StartChar: D
Encoding: 68 68 40
Width: 1442
GlyphClass: 2
Flags: HMW
LayerCount: 2
Back
SplineSet
1288 128 m 5
 1087 128 l 5
 1087 1627 l 5
 1288 1627 l 5
 1288 128 l 5
EndSplineSet
Fore
SplineSet
881 143 m 134
 1061 143 1087 205 1087 361 c 134
 1087 1168.29980469 l 134
 1087 1290.29980469 1073 1355.29980469 811 1355.29980469 c 134
 379 1355.29980469 l 5
 379 143 l 5
 881 143 l 134
715 1499 m 6
 1219 1499 1288 1399 1288 903 c 6
 1288 594 l 6
 1288 97 1202 0 715 0 c 6
 178 0 l 5
 178 1499 l 5
 715 1499 l 6
EndSplineSet
EndChar

StartChar: E
Encoding: 69 69 41
Width: 1156
GlyphClass: 2
Flags: HMW
LayerCount: 2
Back
SplineSet
379 0 m 1
 178 0 l 1
 178 1499 l 1
 379 1499 l 1
 379 0 l 1
EndSplineSet
Fore
SplineSet
379 701 m 1
 379 143 l 1
 1037 143 l 1
 1027 0 l 1
 178 0 l 1
 178 1499 l 1
 1012 1499 l 1
 1022 1355.29980469 l 1
 379 1355.29980469 l 1
 379 855 l 1
 961 855 l 1
 961 701 l 1
 379 701 l 1
EndSplineSet
EndChar

StartChar: F
Encoding: 70 70 42
Width: 1055
GlyphClass: 2
Flags: HMW
LayerCount: 2
Back
SplineSet
379 0 m 5
 178 0 l 5
 178 1499 l 5
 379 1499 l 5
 379 0 l 5
EndSplineSet
Fore
SplineSet
379 696 m 1
 379 0 l 1
 178 0 l 1
 178 1499 l 1
 969 1499 l 1
 979 1355.29980469 l 1
 379 1355.29980469 l 1
 379 850 l 1
 922 850 l 1
 922 696 l 1
 379 696 l 1
EndSplineSet
EndChar

StartChar: G
Encoding: 71 71 43
Width: 1408
GlyphClass: 2
Flags: HMW
LayerCount: 2
Back
SplineSet
1244.5 0 m 5
 1043.5 0 l 5
 1043.5 1499 l 5
 1244.5 1499 l 5
 1244.5 0 l 5
EndSplineSet
Fore
SplineSet
722 -24 m 128
 209 -24 148 68 148 594 c 2
 148 903 l 2
 148 1366.74707031 207 1524 646 1524 c 128
 1004.29980469 1524 1235 1516.97851562 1235 1198 c 128
 1235 1157 1231 1118 1223 1080 c 1
 1045 1060 l 1
 1045 1150.11621094 1046 1274.29980469 1046 1274.29980469 c 2
 1049.10253906 1373.29980469 947.743164062 1380.29980469 684 1380.29980469 c 0
 402.839285714 1380.29980469 349 1346.29980469 349 1218.29980469 c 6
 349 345 l 6
 349 141 348.002645503 117 726 119 c 0
 888.796875 119.930664062 1043.29882812 129.241210938 1063 146 c 1
 1063 606 l 1
 808 606 l 1
 788 748 l 1
 1244 748 l 1
 1244 53 l 1
 1148.81152344 2 974.811523438 -24 722 -24 c 128
EndSplineSet
EndChar

StartChar: H
Encoding: 72 72 44
Width: 1428
GlyphClass: 2
Flags: HMW
LayerCount: 2
Back
SplineSet
1248.5 0 m 1
 1047.5 0 l 1
 1047.5 1499 l 1
 1248.5 1499 l 1
 1248.5 0 l 1
EndSplineSet
Fore
SplineSet
379 691 m 1
 379 0 l 1
 178 0 l 1
 178 1499 l 1
 379 1499 l 1
 379 840 l 1
 1047 840 l 1
 1047 1499 l 1
 1248 1499 l 1
 1248 0 l 1
 1047 0 l 1
 1047 691 l 1
 379 691 l 1
EndSplineSet
EndChar

StartChar: I
Encoding: 73 73 45
Width: 559
GlyphClass: 2
Flags: HMW
LayerCount: 2
Fore
SplineSet
379 0 m 5
 178 0 l 5
 178 1499 l 5
 379 1499 l 5
 379 0 l 5
EndSplineSet
EndChar

StartChar: J
Encoding: 74 74 46
Width: 667
GlyphClass: 2
Flags: HMW
LayerCount: 2
Back
SplineSet
491 0 m 5
 290 0 l 5
 290 1499 l 5
 491 1499 l 5
 491 0 l 5
EndSplineSet
Fore
SplineSet
284 -24 m 0
 221 -24 153 -16 78 0 c 1
 78 143 l 1
 290 143 l 1
 290 1499 l 1
 491 1499 l 1
 491 177 l 2
 491 43 421.665048544 -24 284 -24 c 0
EndSplineSet
EndChar

StartChar: K
Encoding: 75 75 47
Width: 1251
GlyphClass: 2
Flags: HMW
LayerCount: 2
Back
SplineSet
380 0 m 5
 179 0 l 5
 179 1499 l 5
 380 1499 l 5
 380 0 l 5
EndSplineSet
Fore
SplineSet
380 0 m 1
 179 0 l 1
 179 500.691186827 179 999.488120591 179 1499 c 1
 380 1499 l 1
 380 821 l 1
 911 1499 l 1
 1152 1499 l 1
 587 815 l 1
 1214 0 l 1
 968 0 l 1
 427 732 l 1
 380 677 l 1
 380 0 l 1
EndSplineSet
EndChar

StartChar: L
Encoding: 76 76 48
Width: 1015
GlyphClass: 2
Flags: HMW
LayerCount: 2
Back
SplineSet
379 0 m 5
 178 0 l 5
 178 1499 l 5
 379 1499 l 5
 379 0 l 5
EndSplineSet
Fore
SplineSet
178 0 m 1
 178 1499 l 1
 379 1499 l 1
 379 143 l 1
 940 143 l 1
 930 0 l 1
 178 0 l 1
EndSplineSet
EndChar

StartChar: M
Encoding: 77 77 49
Width: 1742
GlyphClass: 2
Flags: HMW
LayerCount: 2
Fore
SplineSet
376 1192 m 1
 322 0 l 1
 148 0 l 1
 237 1499 l 1
 446 1499 l 1
 872 326 l 1
 1284 1499 l 1
 1504 1499 l 1
 1593 0 l 1
 1395 0 l 1
 1333 1201 l 1
 929 0 l 1
 807 0 l 1
 376 1192 l 1
EndSplineSet
EndChar

StartChar: N
Encoding: 78 78 50
Width: 1459
GlyphClass: 2
Flags: HMW
LayerCount: 2
Fore
SplineSet
1106 1499 m 1
 1279 1499 l 5
 1279 0 l 5
 1067 0 l 1
 351 1194 l 1
 351 0 l 1
 178 0 l 1
 178 1499 l 1
 381 1499 l 1
 1106 287 l 1
 1106 1499 l 1
EndSplineSet
EndChar

StartChar: O
Encoding: 79 79 51
Width: 1452
GlyphClass: 2
Flags: HMW
LayerCount: 2
Back
SplineSet
1295 0 m 1
 1094 0 l 1
 1094 1499 l 1
 1295 1499 l 1
 1295 0 l 1
EndSplineSet
Fore
SplineSet
722 1380 m 0
 362 1380 349 1352 349 1135 c 2
 349 347 l 2
 349 140 372 119 724 119 c 0
 1060 119 1094 142 1094 327 c 2
 1094 1125 l 2
 1094 1351 1072 1380 722 1380 c 0
722 -24 m 0
 221.127399651 -24 148 78 148 547 c 6
 148 955 l 6
 148 1424 222.129144852 1524 722 1524 c 0
 1222 1524 1295 1410 1295 903 c 2
 1295 529 l 2
 1295 71 1222 -24 722 -24 c 0
EndSplineSet
EndChar

StartChar: P
Encoding: 80 80 52
Width: 1317
GlyphClass: 2
Flags: HMW
LayerCount: 2
Back
SplineSet
1175 0 m 5
 974 0 l 5
 974 1499 l 5
 1175 1499 l 5
 1175 0 l 5
EndSplineSet
Fore
SplineSet
708 1499 m 2
 1072 1499 1175 1439.21484375 1175 1007 c 128
 1175 594.419921875 1083 517 864 517 c 130
 379 517 l 1
 379 0 l 1
 178 0 l 1
 178 1499 l 1
 708 1499 l 2
750 661 m 2
 951 661 974 691.353515625 974 852 c 130
 974 1155.29980469 l 2
 973.68418406 1250.29980469 950.828358209 1355.29980469 839 1355.29980469 c 130
 379 1355.29980469 l 1
 379 661 l 1
 750 661 l 2
EndSplineSet
EndChar

StartChar: Q
Encoding: 81 81 53
Width: 1452
GlyphClass: 2
Flags: HMW
LayerCount: 2
Fore
SplineSet
1230 -243 m 1
 1091 -358 l 1
 866 -21 l 1
 1047 38 l 1
 1230 -243 l 1
EndSplineSet
Refer: 51 79 N 1 0 0 1 -1 0 2
EndChar

StartChar: R
Encoding: 82 82 54
Width: 1369
GlyphClass: 2
Flags: HMW
LayerCount: 2
Back
SplineSet
1202 0 m 5
 1001 0 l 5
 1001 1499 l 5
 1202 1499 l 5
 1202 0 l 5
EndSplineSet
Fore
SplineSet
746 1499 m 2
 1058 1499 1202 1431 1202 1092 c 128
 1202 805 1080 720 936 699 c 1
 1077 685 1158 606 1178 463 c 2
 1243 0 l 1
 1031 0 l 1
 985 402 l 2
 966 571 951 621 770 621 c 2
 379 621 l 1
 379 0 l 1
 178 0 l 1
 178 1499 l 1
 746 1499 l 2
1001 926 m 130
 1001 1217 l 2
 1001 1332 952.163333333 1355 702 1355 c 2
 379 1355 l 1
 379 775 l 1
 716 775 l 2
 936 775 1001 796 1001 926 c 130
EndSplineSet
EndChar

StartChar: S
Encoding: 83 83 55
Width: 1319
GlyphClass: 2
Flags: HMW
LayerCount: 2
Fore
SplineSet
361 1015 m 2
 361 965 369 929 441 919 c 2
 978 827 l 2
 1157 796 1186 637 1186 378 c 0
 1186 6 975 -24 651 -24 c 0
 238 -24 139 44 139 286 c 0
 139 322 142 364 146 409 c 1
 336 419 l 1
 330 367.571289062 327 302.428710938 327 267 c 0
 327 131 404 119 653 119 c 0
 913 119 985 128 985 232 c 2
 985 483 l 2
 985 583 960 638 925 645 c 2
 423 732 l 2
 221 767 160 856 160 1136 c 0
 160 1456.65722656 329 1523 645 1523 c 0
 974 1523 1141 1491.78613281 1141 1231 c 0
 1141 1208 1138 1182 1134 1154 c 1
 952 1133 l 1
 955 1169.61523438 957 1189.23046875 957 1218 c 0
 957 1364 877 1380 645 1380 c 0
 406 1380 362 1367 361 1231 c 2
 361 1015 l 2
EndSplineSet
EndChar

StartChar: T
Encoding: 84 84 56
Width: 993
GlyphClass: 2
Flags: HMW
LayerCount: 2
Back
SplineSet
586 0 m 5
 385 0 l 5
 385 1499 l 5
 586 1499 l 5
 586 0 l 5
EndSplineSet
Fore
SplineSet
970 1499 m 1
 970 1355 l 1
 586 1355 l 1
 586 0 l 1
 385 0 l 1
 385 1355 l 1
 10 1355 l 1
 10 1499 l 1
 970 1499 l 1
EndSplineSet
EndChar

StartChar: U
Encoding: 85 85 57
Width: 1465
GlyphClass: 2
Flags: HMW
LayerCount: 2
Back
SplineSet
1295.5 128 m 1
 1094.5 128 l 1
 1094.5 1627 l 1
 1295.5 1627 l 1
 1295.5 128 l 1
EndSplineSet
Fore
SplineSet
730 119 m 256
 1046 119 1095 154 1095 348 c 2
 1095 1499 l 1
 1296 1499 l 1
 1296 550 l 2
 1296 81 1194 -24 730 -24 c 0
 257 -24 165 74 165 550 c 2
 165 1499 l 1
 366 1499 l 1
 366 354 l 2
 366 139 428 119 730 119 c 256
EndSplineSet
EndChar

StartChar: V
Encoding: 86 86 58
Width: 1225
GlyphClass: 2
Flags: HMW
LayerCount: 2
Fore
SplineSet
606 259 m 1
 976 1499 l 1
 1194 1499 l 1
 705 0 l 1
 497 0 l 1
 24 1499 l 1
 236 1499 l 1
 606 259 l 1
EndSplineSet
EndChar

StartChar: W
Encoding: 87 87 59
Width: 1784
GlyphClass: 2
Flags: HMW
LayerCount: 2
Fore
SplineSet
1295 269 m 1
 1531 1499 l 1
 1716 1499 l 1
 1392 0 l 1
 1175 0 l 1
 888 1183 l 1
 605 0 l 1
 388 0 l 1
 58 1499 l 1
 271 1499 l 1
 507 269 l 1
 795 1499 l 1
 998 1499 l 1
 1295 269 l 1
EndSplineSet
EndChar

StartChar: X
Encoding: 88 88 60
Width: 1218
GlyphClass: 2
Flags: HMW
LayerCount: 2
Fore
SplineSet
609 593 m 1
 285 0 l 1
 70 0 l 1
 496 770 l 1
 89 1499 l 1
 300 1499 l 1
 609 938 l 1
 919 1499 l 1
 1131 1499 l 1
 725 770 l 1
 1150 0 l 1
 934 0 l 1
 609 593 l 1
EndSplineSet
EndChar

StartChar: Y
Encoding: 89 89 61
Width: 1069
GlyphClass: 2
Flags: HMW
LayerCount: 2
Fore
SplineSet
623 0 m 1
 423 0 l 1
 423 510 l 1
 -2 1499 l 1
 213 1499 l 1
 531 723 l 1
 855 1499 l 1
 1063 1499 l 1
 623 510 l 1
 623 0 l 1
EndSplineSet
EndChar

StartChar: Z
Encoding: 90 90 62
Width: 1103
GlyphClass: 2
Flags: HMW
LayerCount: 2
Fore
SplineSet
112 0 m 1
 112 170 l 1
 783 1355.29980469 l 1
 181 1355.29980469 l 1
 161 1499 l 1
 969 1499 l 1
 979 1325 l 1
 323 143 l 1
 989 143 l 1
 979 0 l 1
 112 0 l 1
EndSplineSet
EndChar

StartChar: bracketleft
Encoding: 91 91 63
Width: 567
GlyphClass: 2
Flags: HMW
LayerCount: 2
Fore
SplineSet
180 -262 m 1
 180 1690 l 1
 625 1690 l 1
 625 1543 l 1
 370 1543 l 1
 370 -114 l 1
 625 -114 l 1
 625 -262 l 1
 180 -262 l 1
EndSplineSet
EndChar

StartChar: backslash
Encoding: 92 92 64
Width: 597
GlyphClass: 2
Flags: HMW
LayerCount: 2
Fore
SplineSet
347 0 m 1
 54 1499 l 1
 251 1499 l 1
 544 0 l 1
 347 0 l 1
EndSplineSet
EndChar

StartChar: bracketright
Encoding: 93 93 65
Width: 568
GlyphClass: 2
Flags: HMW
LayerCount: 2
Fore
SplineSet
-55 1690 m 1
 388 1690 l 1
 388 -262 l 1
 -55 -262 l 1
 -55 -114 l 1
 199 -114 l 1
 199 1543 l 1
 -55 1543 l 1
 -55 1690 l 1
EndSplineSet
EndChar

StartChar: asciicircum
Encoding: 94 94 66
Width: 821
GlyphClass: 2
Flags: HMW
LayerCount: 2
Fore
SplineSet
703 1445 m 1
 703 1419 673 1391 648 1391 c 1
 417 1627 l 1
 186 1392 l 1
 161 1392 130 1419 130 1446 c 1
 323 1754 l 2
 341 1783 372 1798 417 1798 c 0
 461 1798 492 1783 511 1754 c 2
 703 1445 l 1
EndSplineSet
EndChar

StartChar: underscore
Encoding: 95 95 67
Width: 1135
GlyphClass: 2
Flags: HMW
LayerCount: 2
Fore
SplineSet
985 0 m 1
 985 -127 l 1
 148 -127 l 1
 148 0 l 1
 985 0 l 1
EndSplineSet
EndChar

StartChar: grave
Encoding: 96 96 68
Width: 699
GlyphClass: 2
Flags: HMW
LayerCount: 2
Fore
SplineSet
102 1540 m 128
 102 1597 138 1640 204 1640 c 128
 251 1640 286 1607 317 1581 c 128
 407 1506 489 1408 575 1332 c 128
 581 1327 584 1319 584 1308 c 128
 584 1297 572 1292 547 1292 c 128
 530 1292 174 1434 169 1438 c 1
 124 1463 102 1497 102 1540 c 128
EndSplineSet
EndChar

StartChar: a
Encoding: 97 97 69
Width: 1132
GlyphClass: 2
Flags: HMW
LayerCount: 2
Back
SplineSet
517 995 m 132
 625 995 762 978 762 888 c 134
 762 0 l 5
 957 0 l 5
 957 1091 l 5
 782 1091 l 5
 760 964 l 5
 726 1086 574 1123 423 1123 c 132
 166 1123 88 1013 88 750 c 6
 88 0 l 5
 283 0 l 5
 283 760 l 6
 283 1016 310 995 517 995 c 132
EndSplineSet
Fore
SplineSet
790 166 m 1
 754 8 637 -14 445 -14 c 128
 226 -14 137 53 127 209 c 0
 124 258 118 306 118 356 c 0
 118 481 196 543 405 570 c 1
 498 580 620 590 780 597 c 1
 780 930 l 2
 780 995 716 1005 558 1005 c 128
 385 1005 337 982 337 942 c 128
 337 898 338 857 341 821 c 1
 176 801 l 1
 168 839 164 860 164 905 c 0
 164 1108 342 1133 572 1133 c 128
 826 1133 975 1078 975 826 c 2
 975 0 l 5
 827 0 l 5
 790 166 l 1
471 114 m 0
 721 114 780 201 780 315 c 2
 780 489 l 1
 669 482 493 464 461 459 c 128
 323 437 296 425 297 345 c 2
 298 235 l 2
 298 130 336 114 471 114 c 0
EndSplineSet
EndChar

StartChar: b
Encoding: 98 98 70
Width: 1219
GlyphClass: 2
Flags: HMW
LayerCount: 2
Back
SplineSet
612 995 m 132
 720 995 857 978 857 888 c 134
 857 0 l 5
 1052 0 l 5
 1052 1091 l 5
 877 1091 l 5
 855 964 l 5
 821 1086 669 1123 518 1123 c 132
 261 1123 183 1013 183 750 c 6
 183 0 l 5
 378 0 l 5
 378 760 l 6
 378 1016 405 995 612 995 c 132
EndSplineSet
Fore
SplineSet
632 1005 m 128
 430 1005 373 984 373 866 c 130
 373 246 l 2
 373 134 444 114 632 114 c 128
 837 114 883 133 883 218 c 130
 883 899 l 2
 883 996 835 1005 632 1005 c 128
1078 371 m 2
 1078 103 1001 -14 701 -14 c 0
 517 -14 407 39 374 144 c 1
 353 0 l 5
 178 0 l 5
 178 1542 l 1
 373 1542 l 1
 373 976 l 1
 410 1081 495 1133 681 1133 c 0
 965 1133 1078 1030 1078 778 c 2
 1078 371 l 2
EndSplineSet
EndChar

StartChar: c
Encoding: 99 99 71
Width: 1140
GlyphClass: 2
Flags: HMW
LayerCount: 2
Back
SplineSet
537 995 m 132
 645 995 782 978 782 888 c 134
 782 0 l 5
 977 0 l 5
 977 1091 l 5
 802 1091 l 5
 780 964 l 5
 746 1086 594 1123 443 1123 c 132
 186 1123 108 1013 108 750 c 6
 108 0 l 5
 303 0 l 5
 303 760 l 6
 303 1016 330 995 537 995 c 132
EndSplineSet
Fore
SplineSet
575 1133 m 128
 908 1133 1001 1065 999 759 c 1
 831 752 l 5
 821 902 l 2
 816 984 815 1005 587 1005 c 128
 385 1005 331 997 331 902 c 130
 331 211 l 130
 331 131 388 114 566 114 c 128
 772 114 817 122 821 195 c 2
 831 374 l 1
 999 364 l 1
 991 45 954 -14 577 -14 c 256
 252 -14 136 42 136 346 c 2
 136 777 l 2
 136 1078 252 1133 575 1133 c 128
EndSplineSet
EndChar

StartChar: d
Encoding: 100 100 72
Width: 1208
GlyphClass: 2
Flags: HMW
LayerCount: 2
Back
SplineSet
534 995 m 128
 642 995 779 978 779 888 c 130
 779 0 l 1
 974 0 l 1
 974 1091 l 1
 799 1091 l 1
 777 964 l 1
 743 1086 591 1123 440 1123 c 128
 183 1123 105 1013 105 750 c 2
 105 0 l 1
 300 0 l 1
 300 760 l 2
 300 1016 327 995 534 995 c 128
EndSplineSet
Fore
SplineSet
575 1005 m 128
 777 1005 833 984 833 866 c 130
 833 246 l 2
 833 134 762 114 574 114 c 128
 369 114 323 134 323 221 c 130
 323 879 l 2
 323 994 372 1005 575 1005 c 128
128 371 m 2
 128 103 205 -14 505 -14 c 0
 689 -14 798 39 831 144 c 1
 853 0 l 5
 1028 0 l 5
 1028 1542 l 1
 833 1542 l 1
 833 986 l 1
 795 1088 711 1133 525 1133 c 0
 241 1133 128 1030 128 778 c 2
 128 371 l 2
EndSplineSet
EndChar

StartChar: e
Encoding: 101 101 73
Width: 1162
GlyphClass: 2
Flags: HMW
LayerCount: 2
Back
SplineSet
569 995 m 128
 677 995 814 978 814 888 c 130
 814 0 l 1
 1009 0 l 1
 1009 1091 l 1
 834 1091 l 1
 812 964 l 1
 778 1086 626 1123 475 1123 c 128
 218 1123 140 1013 140 750 c 2
 140 0 l 1
 335 0 l 1
 335 760 l 2
 335 1016 362 995 569 995 c 128
EndSplineSet
Fore
SplineSet
600 114 m 128
 782.62890625 114 836.057617188 136 838 183 c 6
 846 347 l 5
 1004 337 l 5
 1005.96386719 43 954.899414062 -14 622 -14 c 128
 271 -14 136 18 136 352 c 2
 136 777 l 2
 136 1084 254 1133 588 1133 c 128
 910.782226562 1133 1021 1085 1021 777 c 6
 1021 565 l 5
 331 565 l 1
 331 221 l 130
 331 129 391 114 600 114 c 128
331 658 m 1
 826 658 l 5
 826 900 l 6
 826 991 762.865234375 1005 589 1005 c 128
 374 1005 331 994 331 900 c 2
 331 658 l 1
EndSplineSet
EndChar

StartChar: f
Encoding: 102 102 74
Width: 731
GlyphClass: 2
Flags: HMW
LayerCount: 2
Back
SplineSet
624 1175 m 132
 732 1175 869 1158 869 1068 c 134
 869 180 l 5
 1064 180 l 5
 1064 1271 l 5
 889 1271 l 5
 867 1144 l 5
 833 1266 681 1303 530 1303 c 132
 273 1303 195 1193 195 930 c 6
 195 180 l 5
 390 180 l 5
 390 940 l 6
 390 1196 417 1175 624 1175 c 132
EndSplineSet
Fore
SplineSet
216 1238 m 2
 216 1442 255 1529 435 1529 c 128
 481 1529 540 1523 612 1511 c 1
 612 1375 l 1
 411 1375 l 1
 411 1101 l 1
 608 1101 l 1
 608 1002 l 1
 411 1002 l 1
 411 0 l 5
 216 0 l 5
 216 1002 l 1
 88 1002 l 1
 88 1101 l 1
 216 1101 l 1
 216 1238 l 2
EndSplineSet
EndChar

StartChar: g
Encoding: 103 103 75
Width: 1194
GlyphClass: 2
Flags: HMW
LayerCount: 2
Back
SplineSet
560 995 m 132
 668 995 805 978 805 888 c 134
 805 0 l 5
 1000 0 l 5
 1000 1091 l 5
 825 1091 l 5
 803 964 l 5
 769 1086 617 1123 466 1123 c 132
 209 1123 131 1013 131 750 c 6
 131 0 l 5
 326 0 l 5
 326 760 l 6
 326 1016 353 995 560 995 c 132
EndSplineSet
Fore
SplineSet
577 1005 m 128
 387 1005 330 994 330 887 c 130
 330 217 l 2
 330 123 381 114 601 114 c 128
 697 114 832 120 832 194 c 130
 832 860 l 2
 832 982 764 1005 577 1005 c 128
135 748 m 2
 135 1024 202 1133 476 1133 c 0
 673 1133 785 1094 831 975 c 1
 853 1101 l 1
 1027 1101 l 1
 1027 25 l 2
 1027 -269 903 -355 603 -355 c 128
 448 -355 327 -338 240 -303 c 1
 267 -170 l 1
 345 -197 449 -211 578 -211 c 128
 688 -211 831 -208 831 -103 c 2
 831 122 l 1
 803 24 720 -14 552 -14 c 128
 247 -14 135 59 135 340 c 2
 135 748 l 2
EndSplineSet
EndChar

StartChar: h
Encoding: 104 104 76
Width: 1210
GlyphClass: 2
Flags: HMW
LayerCount: 2
Back
SplineSet
589 995 m 132
 697 995 834 978 834 888 c 134
 834 0 l 5
 1029 0 l 5
 1029 1091 l 5
 854 1091 l 5
 832 964 l 5
 798 1086 646 1123 495 1123 c 132
 238 1123 160 1013 160 750 c 6
 160 0 l 5
 355 0 l 5
 355 760 l 6
 355 1016 382 995 589 995 c 132
EndSplineSet
Fore
SplineSet
860 902 m 2
 860 981 817 1005 606 1005 c 128
 499 1005 373 982 373 900 c 130
 373 0 l 5
 178 0 l 5
 178 1503 l 1
 373 1503 l 1
 373 1021 l 1
 420 1096 521 1133 676 1133 c 128
 974 1133 1055 1063 1055 842 c 2
 1055 0 l 5
 860 0 l 5
 860 902 l 2
EndSplineSet
EndChar

StartChar: i
Encoding: 105 105 77
Width: 555
GlyphClass: 2
Flags: HMW
LayerCount: 2
Back
SplineSet
582 1625 m 132
 690 1625 827 1608 827 1518 c 134
 827 630 l 5
 1022 630 l 5
 1022 1721 l 5
 847 1721 l 5
 825 1594 l 5
 791 1716 639 1753 488 1753 c 132
 231 1753 153 1643 153 1380 c 6
 153 630 l 5
 348 630 l 5
 348 1390 l 6
 348 1646 375 1625 582 1625 c 132
EndSplineSet
Fore
SplineSet
180 1101 m 1
 375 1101 l 1
 375 0 l 5
 180 0 l 5
 180 1101 l 1
180 1348 m 1
 180 1521 l 1
 375 1521 l 1
 375 1348 l 1
 180 1348 l 1
EndSplineSet
EndChar

StartChar: j
Encoding: 106 106 78
Width: 536
GlyphClass: 2
Flags: HMW
LayerCount: 2
Back
SplineSet
564 1605 m 132
 672 1605 809 1588 809 1498 c 134
 809 610 l 5
 1004 610 l 5
 1004 1701 l 5
 829 1701 l 5
 807 1574 l 5
 773 1696 621 1733 470 1733 c 132
 213 1733 135 1623 135 1360 c 6
 135 610 l 5
 330 610 l 5
 330 1370 l 6
 330 1626 357 1605 564 1605 c 132
EndSplineSet
Fore
SplineSet
355 -41 m 2
 355 -209 288 -291 131 -291 c 0
 90 -291 46 -286 -6 -277 c 1
 -6 -148 l 1
 160 -148 l 1
 160 1101 l 1
 355 1101 l 1
 355 -41 l 2
355 1348 m 1
 160 1348 l 1
 160 1521 l 1
 355 1521 l 1
 355 1348 l 1
EndSplineSet
EndChar

StartChar: k
Encoding: 107 107 79
Width: 1141
GlyphClass: 2
Flags: HMW
LayerCount: 2
Back
SplineSet
581 995 m 132
 689 995 826 978 826 888 c 134
 826 0 l 5
 1021 0 l 5
 1021 1091 l 5
 846 1091 l 5
 824 964 l 5
 790 1086 638 1123 487 1123 c 132
 230 1123 152 1013 152 750 c 6
 152 0 l 5
 347 0 l 5
 347 760 l 6
 347 1016 374 995 581 995 c 132
EndSplineSet
Fore
SplineSet
373 0 m 5
 178 0 l 5
 178 1503 l 1
 373 1503 l 1
 373 632 l 1
 820 1101 l 1
 1041 1101 l 1
 604 648 l 1
 1075 0 l 5
 860 0 l 5
 453 578 l 1
 373 494 l 1
 373 0 l 5
EndSplineSet
EndChar

StartChar: l
Encoding: 108 108 80
Width: 553
GlyphClass: 2
Flags: HMW
LayerCount: 2
Back
SplineSet
581 995 m 128
 689 995 826 978 826 888 c 130
 826 0 l 1
 1021 0 l 1
 1021 1091 l 1
 846 1091 l 1
 824 964 l 1
 790 1086 638 1123 487 1123 c 128
 230 1123 152 1013 152 750 c 2
 152 0 l 1
 347 0 l 1
 347 760 l 2
 347 1016 374 995 581 995 c 128
EndSplineSet
Fore
SplineSet
373 0 m 5
 178 0 l 5
 178 1503 l 1
 373 1503 l 1
 373 1001.6640625 373 501.3359375 373 0 c 5
EndSplineSet
EndChar

StartChar: m
Encoding: 109 109 81
Width: 1777
GlyphClass: 2
Flags: HMW
LayerCount: 2
Back
SplineSet
1151.5 995 m 132
 1259.5 995 1396.5 978 1396.5 888 c 134
 1396.5 0 l 5
 1591.5 0 l 5
 1591.5 1091 l 5
 1416.5 1091 l 5
 1394.5 964 l 5
 1360.5 1086 1208.5 1123 1057.5 1123 c 132
 800.5 1123 722.5 1013 722.5 750 c 6
 722.5 0 l 5
 917.5 0 l 5
 917.5 760 l 6
 917.5 1016 944.5 995 1151.5 995 c 132
EndSplineSet
Fore
SplineSet
361 978 m 1
 424 1110 546 1133 696 1133 c 0
 828 1133 913 1081 950 977 c 1
 999 1081 1104 1133 1264 1133 c 128
 1534 1133 1620 1054 1620 781 c 2
 1620 0 l 5
 1425 0 l 5
 1425 928 l 2
 1425 990 1337 1005 1250 1005 c 0
 1002 1005 994 980 994 816 c 2
 994 0 l 5
 799 0 l 5
 799 820 l 2
 799 963 779 1005 573 1005 c 128
 479 1005 359 983 359 901 c 130
 359 0 l 5
 164 0 l 5
 164 1101 l 1
 339 1101 l 1
 361 978 l 1
EndSplineSet
EndChar

StartChar: n
Encoding: 110 110 82
Width: 1189
GlyphClass: 2
Flags: HMW
LayerCount: 2
Fore
SplineSet
604 1005 m 128
 496 1005 359 988 359 898 c 130
 359 0 l 5
 164 0 l 5
 164 1101 l 1
 339 1101 l 1
 361 974 l 1
 395 1096 547 1133 698 1133 c 128
 955 1133 1033 1023 1033 760 c 2
 1033 0 l 5
 838 0 l 5
 838 770 l 2
 838 1026 811 1005 604 1005 c 128
EndSplineSet
EndChar

StartChar: o
Encoding: 111 111 83
Width: 1199
GlyphClass: 2
Flags: HMW
LayerCount: 2
Back
SplineSet
585 995 m 132
 693 995 830 978 830 888 c 134
 830 0 l 5
 1025 0 l 5
 1025 1091 l 5
 850 1091 l 5
 828 964 l 5
 794 1086 642 1123 491 1123 c 132
 234 1123 156 1013 156 750 c 6
 156 0 l 5
 351 0 l 5
 351 760 l 6
 351 1016 378 995 585 995 c 132
EndSplineSet
Fore
SplineSet
595 -14 m 256
 256 -14 136 33 136 346 c 2
 136 777 l 2
 136 1086 256 1133 595 1133 c 0
 930 1133 1053 1087 1053 777 c 6
 1053 352 l 6
 1053 36 938 -14 595 -14 c 256
858 902 m 2
 858 1010 765 1005 595 1005 c 0
 431 1005 331 1009 331 902 c 2
 331 206 l 2
 331 115 422 114 595 114 c 0
 778 114 858 125 858 210 c 2
 858 902 l 2
EndSplineSet
EndChar

StartChar: p
Encoding: 112 112 84
Width: 1207
GlyphClass: 2
Flags: HMW
LayerCount: 2
Back
SplineSet
597 995 m 132
 705 995 842 978 842 888 c 134
 842 0 l 5
 1037 0 l 5
 1037 1091 l 5
 862 1091 l 5
 840 964 l 5
 806 1086 654 1123 503 1123 c 132
 246 1123 168 1013 168 750 c 6
 168 0 l 5
 363 0 l 5
 363 760 l 6
 363 1016 390 995 597 995 c 132
EndSplineSet
Fore
SplineSet
616 114 m 132
 414 114 358 133 358 244 c 130
 358 873 l 2
 358 985 429 1005 617 1005 c 128
 822 1005 868 984 868 889 c 130
 868 220 l 2
 868 123 819 114 616 114 c 132
1063 748 m 2
 1063 1016 986 1133 686 1133 c 0
 502 1133 393 1081 360 976 c 1
 338 1101 l 1
 163 1101 l 1
 163 -386 l 1
 358 -386 l 1
 358 103 l 1
 378 25 480 -14 666 -14 c 0
 950 -14 1063 89 1063 341 c 2
 1063 748 l 2
EndSplineSet
EndChar

StartChar: q
Encoding: 113 113 85
Width: 1200
GlyphClass: 2
Flags: HMW
LayerCount: 2
Fore
SplineSet
579 114 m 128
 781 114 837 133 837 242 c 130
 837 873 l 2
 837 985 766 1005 578 1005 c 132
 373 1005 327 984 327 889 c 130
 327 220 l 2
 327 123 376 114 579 114 c 128
132 748 m 2
 132 1016 209 1133 509 1133 c 0
 693 1133 802 1081 835 976 c 1
 857 1101 l 1
 1032 1101 l 1
 1032 -386 l 1
 837 -386 l 1
 837 103 l 1
 817 25 715 -14 529 -14 c 0
 245 -14 132 89 132 341 c 2
 132 748 l 2
EndSplineSet
EndChar

StartChar: r
Encoding: 114 114 86
Width: 736
GlyphClass: 2
Flags: HMW
LayerCount: 2
Back
SplineSet
563 995 m 132
 671 995 808 978 808 888 c 134
 808 0 l 5
 1003 0 l 5
 1003 1091 l 5
 828 1091 l 5
 806 964 l 5
 772 1086 620 1123 469 1123 c 132
 212 1123 134 1013 134 750 c 6
 134 0 l 5
 329 0 l 5
 329 760 l 6
 329 1016 356 995 563 995 c 132
EndSplineSet
Fore
SplineSet
534 972 m 6
 430 972 379 928.005859375 379 842 c 6
 379 0 l 5
 184 0 l 5
 184 1101 l 5
 358 1101 l 5
 381 974 l 5
 424 1080 513 1134 648 1134 c 5
 648 972 l 5
 534 972 l 6
EndSplineSet
EndChar

StartChar: s
Encoding: 115 115 87
Width: 1107
GlyphClass: 2
Flags: HMW
LayerCount: 2
Fore
SplineSet
593 -14 m 0
 304 -14 134 -4 133 248 c 0
 133 271 136 294 141 316 c 1
 306 336 l 1
 306 237 l 2
 306 129 315 114 577 114 c 128
 728 114 798 126 798 200 c 2
 798 412 l 2
 798 469 782 492 700 499 c 2
 419 523 l 2
 206 545 139 605 139 844 c 0
 139 1088 247 1133 551 1133 c 128
 783 1133 936 1117 936 923 c 128
 936 901 933 881 928 863 c 1
 787 843 l 1
 787 984 788 1005 544 1005 c 132
 376 1005 319 998 319 928 c 2
 318 768 l 2
 318 692 335 673 441 666 c 2
 717 642 l 2
 928 624 973 552 973 305 c 0
 973 41 866 -14 593 -14 c 0
EndSplineSet
EndChar

StartChar: t
Encoding: 116 116 88
Width: 736
GlyphClass: 2
Flags: HMW
LayerCount: 2
Back
SplineSet
636 995 m 132
 744 995 881 978 881 888 c 134
 881 0 l 5
 1076 0 l 5
 1076 1091 l 5
 901 1091 l 5
 879 964 l 5
 845 1086 693 1123 542 1123 c 132
 285 1123 207 1013 207 750 c 6
 207 0 l 5
 402 0 l 5
 402 760 l 6
 402 1016 429 995 636 995 c 132
EndSplineSet
Fore
SplineSet
460 -14 m 0
 305 -14 227 46 227 165 c 2
 227 1002 l 1
 79 1002 l 1
 79 1101 l 1
 227 1101 l 1
 227 1414 l 1
 422 1414 l 1
 422 1101 l 1
 613 1101 l 1
 613 1002 l 1
 422 1002 l 1
 422 127 l 1
 603 127 l 1
 603 -6 l 1
 552 -11 505 -14 460 -14 c 0
EndSplineSet
EndChar

StartChar: u
Encoding: 117 117 89
Width: 1188
GlyphClass: 2
Flags: HMW
LayerCount: 2
Fore
SplineSet
580 114 m 128
 688 114 824 131 824 222 c 130
 824 1101 l 1
 1021 1101 l 1
 1021 -1 l 5
 844 -1 l 5
 822 146 l 1
 788 23 637 -14 486 -14 c 128
 229 -14 150 96 150 360 c 2
 150 1101 l 1
 345 1101 l 1
 345 276 l 2
 345 142 373 114 580 114 c 128
EndSplineSet
EndChar

StartChar: v
Encoding: 118 118 90
Width: 1094
GlyphClass: 2
Flags: HMW
LayerCount: 2
Fore
SplineSet
999 1101 m 1
 650 0 l 5
 440 0 l 5
 76 1101 l 1
 265 1101 l 1
 548 162 l 5
 799 1101 l 1
 999 1101 l 1
EndSplineSet
EndChar

StartChar: w
Encoding: 119 119 91
Width: 1620
GlyphClass: 2
Flags: HMW
LayerCount: 2
Fore
SplineSet
1122 219 m 5
 1325 1101 l 1
 1519 1101 l 1
 1236 0 l 5
 1054 0 l 5
 808 845 l 1
 576 0 l 5
 371 0 l 5
 84 1101 l 1
 269 1101 l 1
 469 219 l 5
 715 1101 l 1
 893 1101 l 1
 1122 219 l 5
EndSplineSet
EndChar

StartChar: x
Encoding: 120 120 92
Width: 1103
GlyphClass: 2
Flags: HMW
LayerCount: 2
Fore
SplineSet
551 434 m 1
 299 0 l 5
 99 0 l 5
 446 566 l 1
 104 1101 l 1
 304 1101 l 1
 550 684 l 1
 797 1101 l 1
 994 1101 l 1
 658 564 l 1
 1001 0 l 5
 801 0 l 5
 551 434 l 1
EndSplineSet
EndChar

StartChar: y
Encoding: 121 121 93
Width: 1105
GlyphClass: 2
Flags: HMW
LayerCount: 2
Fore
SplineSet
352 -203 m 128
 430 -203 439.306640625 -191.067382812 460 -93 c 2
 483 16 l 1
 69 1101 l 1
 263 1101 l 1
 572 256 l 1
 815 1101 l 1
 1012 1101 l 1
 581 -233 l 2
 552 -322 514 -341 380 -341 c 0
 302 -341 224 -331 146 -313 c 1
 172 -182 l 1
 244 -196 304 -203 352 -203 c 128
EndSplineSet
EndChar

StartChar: z
Encoding: 122 122 94
Width: 950
GlyphClass: 2
Flags: HMW
LayerCount: 2
Back
SplineSet
464 0 m 256
 125 0 5 47 5 360 c 2
 5 791 l 2
 5 1100 125 1147 464 1147 c 0
 800 1147 924 1101 924 791 c 2
 924 366 l 2
 924 50 808 0 464 0 c 256
727 916 m 2
 727 1023.1 634 1018 464 1018 c 0
 300 1018 200 1022.08 200 916 c 2
 200 220 l 2
 200 129.033707865 291 128 464 128 c 0
 647 128 727 139.35483871 727 224 c 2
 727 916 l 2
EndSplineSet
Fore
SplineSet
798 1101 m 1
 808 969 l 1
 323 127 l 5
 815 127 l 1
 805 0 l 1
 119 0 l 1
 119 136 l 1
 618 972 l 1
 165 972 l 1
 155 1101 l 1
 798 1101 l 1
EndSplineSet
EndChar

StartChar: braceleft
Encoding: 123 123 95
Width: 643
GlyphClass: 2
Flags: HMW
LayerCount: 2
Fore
SplineSet
681 -172 m 1
 496 -172 372 -112 309 8 c 0
 245 130 241 253 229 416 c 128
 219 546 201 664 84 664 c 1
 84 858 l 1
 156 858 201 918 220 1038 c 0
 226 1074 233 1129 242 1204 c 128
 251 1279 266 1353 287 1426 c 128
 308 1499 350 1561 411 1614 c 128
 472 1667 562 1694 680 1694 c 1
 680 1530 l 1
 547 1530 468 1460 441 1320 c 0
 419 1200 421 1021 403 897 c 128
 394 833 367 787 322 758 c 1
 382 724 414 639 418 502 c 0
 424 292 445 155 483 90 c 128
 521 25 587 -8 681 -8 c 1
 681 -172 l 1
EndSplineSet
EndChar

StartChar: bar
Encoding: 124 124 96
Width: 534
GlyphClass: 2
Flags: HMW
LayerCount: 2
Fore
SplineSet
355 1716 m 1
 355 -98 l 1
 180 -98 l 1
 180 1716 l 1
 355 1716 l 1
EndSplineSet
EndChar

StartChar: braceright
Encoding: 125 125 97
Width: 647
GlyphClass: 2
Flags: HMW
LayerCount: 2
Fore
SplineSet
-35 1530 m 1
 -35 1694 l 1
 169 1694 299 1606 355 1430 c 0
 380 1353 397 1269 406 1180 c 128
 422 1027 436 858 561 858 c 1
 561 664 l 1
 482 664 435 604 422 484 c 0
 418 448 413 390 407 312 c 128
 401 234 389 160 371 90 c 128
 353 20 312 -42 249 -94 c 128
 186 -146 91 -172 -36 -172 c 1
 -36 -8 l 1
 97 -8 177 63 204 204 c 0
 226 323 224 504 242 626 c 128
 251 689 278 733 323 758 c 1
 263 797 231 884 227 1020 c 0
 221 1233 200 1370 162 1434 c 128
 124 1498 58 1530 -35 1530 c 1
EndSplineSet
EndChar

StartChar: asciitilde
Encoding: 126 126 98
Width: 1034
GlyphClass: 2
Flags: HMW
LayerCount: 2
Fore
SplineSet
668 839 m 0
 542 839 382 952 264 952 c 128
 203 952 173 930 143 903 c 128
 136 897 130 894 122 894 c 128
 114 894 110 901 110 916 c 128
 110 931 121 954 144 985 c 0
 209 1075 284 1120 367 1120 c 0
 415 1120 475 1107 548 1080 c 128
 621 1053 675 1034 710 1022 c 128
 745 1010 773 1004 793 1004 c 128
 846 1004 876 1032 904 1056 c 128
 911 1062 918 1065 926 1065 c 128
 934 1065 938 1058 938 1044 c 128
 938 1030 927 1008 905 980 c 0
 830 886 751 839 668 839 c 0
EndSplineSet
EndChar

StartChar: exclamdown
Encoding: 161 161 99
Width: 520
GlyphClass: 2
Flags: HMW
LayerCount: 2
Fore
SplineSet
149 112 m 0
 149 264 162 443 188 650 c 128
 214 857 232 966 238 976 c 128
 244 986 253 991 264 991 c 128
 275 991 284 977 290 950 c 128
 296 923 310 822 332 644 c 128
 354 466 366 331 366 238 c 128
 366 145 364 85 360 58 c 128
 352 4 342 -38 279 -38 c 0
 192 -38 149 12 149 112 c 0
259 1244 m 0
 174 1244 112 1313 112 1400 c 0
 112 1471 142 1519 202 1544 c 0
 220 1552 239 1556 259 1556 c 0
 345 1556 407 1489 407 1400 c 0
 407 1313 355 1244 259 1244 c 0
EndSplineSet
EndChar

StartChar: cent
Encoding: 162 162 100
Width: 1116
GlyphClass: 2
Flags: HMW
LayerCount: 2
Fore
SplineSet
554 1505 m 1
 627 1505 l 1
 627 -72 l 1
 554 -72 l 1
 554 1505 l 1
1028 1028 m 0
 1028 983 1027 946 1024 915 c 1
 1024 911 l 1
 836 911 l 1
 836 942 l 2
 836 1025 832 1079 825 1106 c 128
 818 1133 801 1150 773 1156 c 128
 745 1162 686 1165 594 1165 c 128
 502 1165 440 1162 409 1156 c 128
 378 1150 359 1132 351 1106 c 128
 343 1080 339 1025 339 942 c 2
 339 481 l 2
 339 399 343 346 351 320 c 128
 359 294 378 278 409 272 c 128
 440 266 495 262 573 262 c 128
 651 262 705 264 737 266 c 128
 769 268 792 276 807 290 c 0
 826 308 836 372 836 481 c 2
 836 510 l 1
 1024 510 l 1
 1025 497 1026 485 1026 474 c 2
 1026 441 l 2
 1026 315 997 229 938 184 c 128
 879 139 761 116 584 116 c 128
 407 116 288 144 227 200 c 0
 172 251 144 350 144 497 c 2
 144 940 l 2
 144 1083 173 1181 232 1233 c 128
 291 1285 407 1311 581 1311 c 128
 755 1311 873 1290 935 1247 c 128
 997 1204 1028 1131 1028 1028 c 0
EndSplineSet
EndChar

StartChar: sterling
Encoding: 163 163 101
Width: 1448
GlyphClass: 2
Flags: HMW
LayerCount: 2
Fore
SplineSet
621 0 m 2
 446.4296875 0 352.91015625 54 342 162 c 1
 335 54 258 0 110 0 c 1
 110 222 l 1
 253.732421875 222 258 214.106445312 258 348 c 2
 258 724 l 1
 112 724 l 1
 112 862 l 1
 258 862 l 1
 258 1117 l 2
 258 1510.06152344 418.1484375 1557 813 1557 c 128
 1139.30566406 1557 1326 1545.66992188 1326 1240 c 2
 1326 1046 l 1
 1142 1046 l 1
 1141 1290.29980469 l 1
 1139.67480469 1364.92675781 1087.32421875 1372 842 1372 c 0
 553.524414062 1372 455 1357.58398438 455 1262.29980469 c 2
 455 861 l 1
 1043 861 l 1
 1043 723 l 1
 456 723 l 1
 456 252.299804688 l 2
 456 189.706054688 573.248046875 174 805 174 c 0
 1055.48339844 174 1163 185.776367188 1163 264.299804688 c 2
 1163 510 l 1
 1344 510 l 1
 1344 344 l 2
 1344 69.515625 1265.73144531 0 982 0 c 2
 621 0 l 2
EndSplineSet
EndChar

StartChar: currency
Encoding: 164 164 102
Width: 1123
GlyphClass: 2
Flags: HMW
LayerCount: 2
Fore
SplineSet
146 764 m 0
 146 894.005859375 185 995.7109375 263 1070 c 1
 125 1241 l 1
 188 1311 l 1
 338 1130 l 1
 397 1169.33300781 472 1189 563 1189 c 128
 654 1189 728 1170.33300781 787 1133 c 1
 939 1310 l 1
 1003 1240 l 1
 865 1071 l 1
 945 995.826171875 985 894.12109375 985 765 c 128
 985 635.78125 945 533.115234375 865 457 c 1
 1004 287 l 1
 940 218 l 1
 790 397 l 1
 730 365.235351562 655 349 565 349 c 0
 472 349 396 365.333007812 337 398 c 1
 187 218 l 1
 124 287 l 1
 263 457 l 1
 185 531.317382812 146 633.9453125 146 764 c 0
878 772 m 0
 878 982.208007812 794 1098 565 1098 c 0
 356 1098 251 989.370117188 251 773 c 0
 251 555.666992188 341 447 565 447 c 0
 774 447 878 555.629882812 878 772 c 0
EndSplineSet
EndChar

StartChar: yen
Encoding: 165 165 103
Width: 1086
GlyphClass: 2
Flags: HMW
LayerCount: 2
Fore
SplineSet
646 293 m 1
 646 0 l 1
 447 0 l 1
 447 293 l 1
 125 293 l 1
 125 394 l 1
 447 394 l 1
 447 510 l 1
 419 572 l 1
 125 572 l 1
 125 672 l 1
 375 672 l 1
 22 1499 l 1
 237 1499 l 1
 551 723 l 1
 871 1499 l 1
 1079 1499 l 1
 719 672 l 1
 958 672 l 1
 958 572 l 1
 674 572 l 1
 646 510 l 1
 646 394 l 1
 958 394 l 1
 958 293 l 1
 646 293 l 1
EndSplineSet
EndChar

StartChar: brokenbar
Encoding: 166 166 104
Width: 532
GlyphClass: 2
Flags: HMW
LayerCount: 2
Fore
SplineSet
360 563 m 1
 360 -249 l 1
 173 -249 l 1
 173 563 l 1
 360 563 l 1
360 1631 m 1
 360 819 l 1
 173 819 l 1
 173 1631 l 1
 360 1631 l 1
EndSplineSet
EndChar

StartChar: section
Encoding: 167 167 105
Width: 1081
GlyphClass: 2
Flags: HMW
LayerCount: 2
Fore
SplineSet
580 -10 m 128
 727 -10 753 32 753 198 c 128
 753 335 717 391 611 403 c 128
 547 411 496 420 433 429 c 0
 226 460 155 537 155 762 c 128
 155 866 187 943 251 993 c 1
 188 1050 157 1146 157 1282 c 128
 157 1556.0546875 271.5859375 1613 544 1613 c 128
 823.130859375 1613 934 1548.46191406 934 1263 c 1
 763 1263 l 1
 763 1464.60058594 716.084960938 1482 542 1482 c 0
 354.911132812 1482 329 1463.91796875 329 1277 c 128
 329 1133.02636719 343.181640625 1097.03222656 432 1078 c 128
 460 1072 524 1060 624 1043 c 128
 822.012695312 1009.33789062 929 965.052734375 929 733 c 128
 929 619 895 538 827 489 c 1
 893 432 926 334 926 195 c 128
 926 56 894 -35 832 -77 c 128
 770 -119 670 -140 533 -140 c 128
 252.953125 -140 140 -75.841796875 140 210 c 1
 312 210 l 1
 312 -19.537109375 380.474609375 -10 580 -10 c 128
331 775 m 128
 331 669 342 617 414 590 c 128
 499 558 611 556 720 543 c 1
 741 560 752 608 752 685 c 128
 752 845.244140625 716.88671875 861.2265625 600 885 c 128
 519 902 443 915 356 939 c 1
 339 877 331 823 331 775 c 128
EndSplineSet
EndChar

StartChar: dieresis
Encoding: 168 168 106
Width: 1000
GlyphClass: 2
Flags: HMW
LayerCount: 2
Fore
SplineSet
618 244 m 4
 618 335 679 371 749 371 c 4
 819 371 878 336 878 244 c 4
 878 152 819 117 749 117 c 4
 679 117 618 154 618 244 c 4
126 244 m 0
 126 335 187 371 257 371 c 0
 327 371 386 336 386 244 c 0
 386 152 327 117 257 117 c 0
 187 117 126 154 126 244 c 0
EndSplineSet
EndChar

StartChar: copyright
Encoding: 169 169 107
Width: 1766
GlyphClass: 2
Flags: HMW
LayerCount: 2
Fore
SplineSet
113 762 m 0
 113 1274.57226562 502.307617188 1531.91210938 891.2109375 1531.91210938 c 0
 1279.30664062 1531.91210938 1667 1275.63964844 1667 761 c 0
 1667 254.375 1277.6953125 0.021484375 888.793945312 0.021484375 c 0
 500.696289062 0.021484375 113 253.32421875 113 762 c 0
226 760 m 0
 226 315.1328125 558.850585938 91.8408203125 891.275390625 91.8408203125 c 0
 1222.84960938 91.8408203125 1554 313.9921875 1554 760 c 0
 1554 1211.31347656 1221.14941406 1437.84179688 888.724609375 1437.84179688 c 0
 557.150390625 1437.84179688 226 1212.47070312 226 760 c 0
898 341 m 128
 1127.14257812 341 1133.08984375 353.239257812 1138.12890625 451.5 c 2
 1148 644 l 1
 1274 644 l 1
 1274 279 1227.60449219 226 898 226 c 128
 540 226 487 320 487 688 c 2
 487 865 l 2
 487 1234 540 1327 898 1327 c 128
 1227.60449219 1327 1274 1252 1274 909 c 1
 1148 909 l 1
 1138.08496094 1072.5 l 2
 1138.14160156 1186.5 1128.41699219 1212 898 1212 c 128
 644.106445312 1212 631.854492188 1186.77929688 631.860351562 1063.5 c 2
 631.884765625 505.5 l 2
 631.8984375 350.2421875 643.455078125 341 898 341 c 128
EndSplineSet
EndChar

StartChar: guillemotleft
Encoding: 171 171 109
Width: 1223
GlyphClass: 2
Flags: HMW
LayerCount: 2
Fore
SplineSet
580 1254 m 128
 618 1254 644 1224 644 1188 c 128
 644 1171 636 1147 620 1116 c 1
 280 716 l 1
 620 316 l 1
 636 287 644 263 644 245 c 0
 644 200 621 178 576 178 c 0
 553 178 533 186 515 202 c 2
 125 574 l 2
 86 612 66 659 66 716 c 256
 66 773 86 820 125 858 c 2
 515 1229 l 1
 538 1246 560 1254 580 1254 c 128
1085 1254 m 128
 1121 1254 1147 1223 1147 1188 c 128
 1147 1172 1139 1148 1123 1116 c 1
 790 716 l 1
 1123 316 l 1
 1139 285 1147 261 1147 244 c 0
 1147 200 1125 178 1081 178 c 0
 1060 178 1040 186 1022 202 c 2
 630 574 l 2
 588 613 567 661 567 716 c 0
 567 773 588 820 630 858 c 1
 1022 1229 l 1
 1045 1246 1066 1254 1085 1254 c 128
EndSplineSet
EndChar

StartChar: logicalnot
Encoding: 172 172 110
Width: 1202
GlyphClass: 2
Flags: HMW
LayerCount: 2
Fore
SplineSet
1054 294 m 1
 913 294 l 1
 913 773 l 1
 84 773 l 1
 84 962 l 1
 1054 962 l 1
 1054 294 l 1
EndSplineSet
EndChar

StartChar: uni00AD
Encoding: 173 173 111
Width: 1024
GlyphClass: 2
Flags: HMW
LayerCount: 2
Fore
SplineSet
908 549 m 1
 122 549 l 1
 122 728 l 1
 908 728 l 1
 908 549 l 1
EndSplineSet
EndChar

StartChar: registered
Encoding: 174 174 112
Width: 1766
GlyphClass: 2
Flags: HMW
LayerCount: 2
Fore
SplineSet
113 762 m 0
 113 1274.57226562 502.307617188 1531.91210938 891.2109375 1531.91210938 c 0
 1279.30664062 1531.91210938 1667 1275.63964844 1667 761 c 0
 1667 254.375 1277.6953125 0.021484375 888.793945312 0.021484375 c 0
 500.696289062 0.021484375 113 253.32421875 113 762 c 0
226 760 m 0
 226 315.1328125 558.850585938 91.8408203125 891.275390625 91.8408203125 c 0
 1222.84960938 91.8408203125 1554 313.9921875 1554 760 c 0
 1554 1211.31347656 1221.14941406 1437.84179688 888.724609375 1437.84179688 c 0
 557.150390625 1437.84179688 226 1212.47070312 226 760 c 0
898 1288 m 2
 1157.97265625 1288 1260 1252.52441406 1260 1021 c 0
 1260 873.5546875 1203.33300781 796.19140625 1090 788 c 1
 1186.81640625 783 1252 720 1252 609 c 2
 1252 268 l 1
 1118 268 l 1
 1118 564 l 2
 1118 722.45703125 1107 734 965 734 c 2
 701 734 l 1
 702 267 l 1
 574 267 l 1
 574 1288 l 1
 898 1288 l 2
1123 1007 m 128
 1123 1175.4296875 1080 1183 896 1183 c 2
 701 1183 l 1
 701 832 l 1
 898 832 l 2
 1078 832 1123 849.051757812 1123 1007 c 128
EndSplineSet
EndChar

StartChar: macron
Encoding: 175 175 113
Width: 821
GlyphClass: 2
Flags: HMW
LayerCount: 2
Fore
SplineSet
717 838 m 1
 717 711 l 1
 120 711 l 1
 120 838 l 1
 717 838 l 1
EndSplineSet
EndChar

StartChar: degree
Encoding: 176 176 114
Width: 847
GlyphClass: 2
Flags: HMW
LayerCount: 2
Fore
SplineSet
120 1322 m 0
 120 1487.63085938 266.36328125 1597 428 1597 c 0
 588.947265625 1597 735 1485.66308594 735 1321 c 256
 735 1154.88574219 590.7265625 1046 428 1046 c 0
 265.828125 1046 120 1155.85351562 120 1322 c 0
428 1155 m 128
 512 1155 560 1235 560 1321 c 256
 560 1407 511 1486 427 1486 c 128
 344 1486 298 1406 298 1321 c 0
 298 1235 344 1155 428 1155 c 128
EndSplineSet
EndChar

StartChar: plusminus
Encoding: 177 177 115
Width: 974
GlyphClass: 2
Flags: HMW
LayerCount: 2
Fore
SplineSet
574 1117 m 1
 574 754 l 1
 883 754 l 1
 883 585 l 1
 574 585 l 1
 574 223 l 1
 408 223 l 1
 408 585 l 1
 99 585 l 1
 99 754 l 1
 408 754 l 1
 408 1117 l 1
 574 1117 l 1
884 -24 m 1
 98 -24 l 1
 98 139 l 1
 884 139 l 1
 884 -24 l 1
EndSplineSet
EndChar

StartChar: acute
Encoding: 180 180 118
Width: 688
GlyphClass: 2
Flags: HMW
LayerCount: 2
Fore
SplineSet
520 1640 m 128
 568 1640 601 1583 601 1528 c 128
 601 1493 579 1463 535 1438 c 1
 522 1427 455 1399 334 1356 c 128
 213 1313 148 1292 137 1292 c 128
 126 1292 120 1297 120 1308 c 128
 120 1319 123 1327 129 1332 c 128
 135 1337 143 1346 154 1357 c 0
 322 1530 429 1623 475 1636 c 0
 486 1639 501 1640 520 1640 c 128
EndSplineSet
EndChar

StartChar: paragraph
Encoding: 182 182 120
Width: 1067
GlyphClass: 2
Flags: HMW
LayerCount: 2
Fore
SplineSet
399 845 m 0
 188 845 61 963 61 1190 c 0
 61 1451 227 1521 509 1521 c 2
 896 1521 l 1
 896 0 l 1
 743 0 l 1
 743 844 l 1
 572 844 l 1
 572 0 l 1
 418 0 l 1
 418 845 l 1
 408 845 408 845 399 845 c 0
EndSplineSet
EndChar

StartChar: periodcentered
Encoding: 183 183 121
Width: 545
GlyphClass: 2
Flags: HMW
LayerCount: 2
Fore
SplineSet
274 528 m 0
 192 528 134 598 134 682 c 0
 134 767 183 836 274 836 c 0
 358 836 414 769 414 682 c 0
 414 598 365 528 274 528 c 0
EndSplineSet
EndChar

StartChar: cedilla
Encoding: 184 184 122
Width: 740
GlyphClass: 2
Flags: HMW
LayerCount: 2
Fore
SplineSet
114 -426 m 0
 114 -401 134 -373 157 -373 c 128
 167 -373 188 -382 220 -401 c 128
 252 -420 290 -429 334 -429 c 128
 378 -429 400 -411 400 -376 c 0
 400 -318 354 -289 262 -289 c 1
 274 -237 287 -190 299 -144 c 2
 337 0 l 1
 446 0 l 1
 397 -168 l 1
 432 -174 450 -173 494 -184 c 128
 568 -202 616 -261 616 -364 c 128
 616 -489 509 -557 382 -557 c 128
 289 -557 114 -507 114 -426 c 0
EndSplineSet
EndChar

StartChar: guillemotright
Encoding: 187 187 125
Width: 1225
GlyphClass: 2
Flags: HMW
LayerCount: 2
Fore
SplineSet
93 1185 m 0
 93 1231 114 1254 155 1254 c 0
 175 1254 196 1246 218 1229 c 1
 610 858 l 2
 651 819 672 772 672 716 c 0
 672 661 651 614 610 574 c 2
 218 202 l 2
 201 186 182 178 159 178 c 0
 115 178 93 201 93 247 c 0
 93 266 101 289 116 316 c 1
 448 716 l 1
 116 1116 l 1
 101 1144 93 1167 93 1185 c 0
664 178 m 128
 621 178 595 205 595 246 c 128
 595 265 603 289 620 316 c 1
 959 716 l 1
 620 1116 l 1
 603 1145 595 1168 595 1186 c 128
 595 1223 622 1254 660 1254 c 128
 680 1254 702 1246 725 1229 c 1
 1114 858 l 2
 1153 820 1173 773 1173 716 c 128
 1173 659 1153 612 1114 574 c 2
 725 202 l 2
 708 186 687 178 664 178 c 128
EndSplineSet
EndChar

StartChar: onequarter
Encoding: 188 188 126
Width: 757
GlyphClass: 2
Flags: HMW
LayerCount: 2
Fore
SplineSet
389 152 m 1
 168 152 l 1
 130 250 l 1
 331 616 l 1
 503 616 l 1
 503 250 l 1
 575 250 l 1
 575 152 l 1
 503 152 l 1
 503 0 l 1
 389 0 l 1
 389 152 l 1
389 250 m 1
 389 544 l 1
 339 443 291 350 240 250 c 1
 389 250 l 1
705 711 m 1
 70 711 l 1
 70 826 l 1
 705 826 l 1
 705 711 l 1
274 1431 m 1
 303 1431 323 1440 335 1458 c 128
 347 1476 353 1490 353 1499 c 1
 461 1499 l 1
 461 918 l 1
 340 918 l 1
 340 1368 l 1
 274 1368 l 1
 274 1431 l 1
EndSplineSet
EndChar

StartChar: onehalf
Encoding: 189 189 127
Width: 758
GlyphClass: 2
Flags: HMW
LayerCount: 2
Fore
SplineSet
472 452 m 128
 472 516 460 534 398 534 c 128
 368 534 348 533 339 532 c 0
 314 528 301 495 301 434 c 1
 182 434 l 1
 182 557 221 624 300 636 c 0
 325 640 361 642 410 642 c 128
 459 642 501 631 536 610 c 128
 571 589 588 541 588 466 c 128
 588 391 560 332 505 290 c 1
 478 271 356 191 330 170 c 128
 313 156 302 138 297 117 c 1
 578 117 l 1
 578 0 l 1
 179 0 l 1
 179 99 l 2
 179 168 222 231 308 288 c 0
 353 317 410 347 447 380 c 128
 464 395 472 419 472 452 c 128
701 711 m 1
 61 711 l 1
 61 826 l 1
 701 826 l 1
 701 711 l 1
264 1431 m 1
 293 1431 314 1440 326 1458 c 128
 338 1476 344 1490 344 1499 c 1
 457 1499 l 1
 457 918 l 1
 332 918 l 1
 332 1368 l 1
 264 1368 l 1
 264 1431 l 1
EndSplineSet
EndChar

StartChar: threequarters
Encoding: 190 190 128
Width: 796
GlyphClass: 2
Flags: HMW
LayerCount: 2
Fore
SplineSet
494 1069 m 128
 494 1157 464 1155 369 1155 c 1
 369 1248 l 1
 401 1248 l 2
 474 1248 494 1252 494 1324 c 128
 494 1395 476 1403 404 1403 c 128
 328 1403 319 1397 319 1319 c 1
 217 1319 l 1
 217 1426 253 1485 324 1494 c 0
 346 1497 382 1499 432 1499 c 128
 542 1499 591 1456 591 1338 c 128
 591 1274 582 1236 565 1223 c 128
 548 1210 530 1202 512 1199 c 1
 588 1186 591 1156 591 1050 c 128
 591 918 539 890 403 890 c 128
 259 890 217 914 217 1060 c 1
 319 1060 l 1
 319 989 330 985 403 985 c 128
 479 985 494 990 494 1069 c 128
406 152 m 1
 185 152 l 1
 147 250 l 1
 347 616 l 1
 519 616 l 1
 519 250 l 1
 591 250 l 1
 591 152 l 1
 519 152 l 1
 519 0 l 1
 406 0 l 1
 406 152 l 1
406 250 m 1
 406 544 l 1
 356 443 307 350 256 250 c 1
 406 250 l 1
721 701 m 1
 86 701 l 1
 86 816 l 1
 721 816 l 1
 721 701 l 1
EndSplineSet
EndChar

StartChar: questiondown
Encoding: 191 191 129
Width: 726
GlyphClass: 2
Flags: HMW
LayerCount: 2
Fore
SplineSet
448 -24 m 0
 207 -24 87 96 87 335 c 0
 87 451 138 569 241 688 c 0
 343.419921875 807.235351562 402.318359375 869.454101562 418 1020 c 1
 500 1019 l 1
 500 879.41796875 470 762.088867188 411 666 c 128
 325.620117188 528.5234375 280 486.932617188 280 346 c 0
 280 222 341 160 464 160 c 0
 505 160 580 174 687 202 c 1
 710 37 l 1
 604 -4 517 -24 448 -24 c 0
466 1546 m 0
 548 1546 606 1476 606 1392 c 0
 606 1308.16503906 557.284179688 1238 467 1238 c 0
 387 1238 326 1297 326 1392 c 0
 326 1476 375 1546 466 1546 c 0
EndSplineSet
EndChar

StartChar: AE
Encoding: 198 198 136
Width: 1965
GlyphClass: 2
Flags: HMW
LayerCount: 2
Fore
SplineSet
1182 703 m 1
 1182 160 l 1
 1845 160 l 1
 1845 0 l 1
 983 0 l 1
 983 389 l 1
 432 389 l 1
 209 0 l 1
 27 0 l 1
 900 1499 l 1
 1829 1499 l 1
 1829 1339 l 1
 1182 1339 l 1
 1182 863 l 1
 1749 863 l 1
 1749 703 l 1
 1182 703 l 1
983 521 m 1
 983 1373 l 1
 509 521 l 1
 983 521 l 1
EndSplineSet
EndChar

StartChar: Eth
Encoding: 208 208 146
Width: 1465
GlyphClass: 2
Flags: HMW
LayerCount: 2
Fore
SplineSet
213 0 m 1
 213 696 l 1
 88 696 l 1
 88 822 l 1
 213 822 l 1
 213 1498 l 1
 735 1499 l 2
 903 1499 1014 1491 1068 1476 c 0
 1162 1449 1226 1393 1259 1310 c 128
 1292 1227 1308 1092 1308 903 c 2
 1308 594 l 2
 1308 407 1292 273 1259 191 c 128
 1226 109 1171 57 1095 34 c 128
 1019 11 899 0 735 0 c 2
 213 0 l 1
414 822 m 1
 646 822 l 1
 646 696 l 1
 414 696 l 1
 414 163 l 1
 735 162 l 2
 872 162 957 166 989 176 c 128
 1055 196 1077 226 1093 298 c 128
 1101 335 1106 433 1107 594 c 1
 1107 903 l 1
 1106 1064 1102 1162 1095 1197 c 128
 1082 1267 1063 1299 1003 1322 c 128
 974 1333 901 1339 785 1339 c 2
 414 1338 l 1
 414 822 l 1
EndSplineSet
EndChar

StartChar: multiply
Encoding: 215 215 153
Width: 891
GlyphClass: 2
Flags: HMW
LayerCount: 2
Fore
SplineSet
557 670 m 1
 780 420 l 1
 662 288 l 1
 435 538 l 1
 209 288 l 1
 90 420 l 1
 314 670 l 1
 90 920 l 1
 209 1052 l 1
 435 802 l 1
 662 1052 l 1
 780 920 l 1
 557 670 l 1
EndSplineSet
EndChar

StartChar: Oslash
Encoding: 216 216 154
Width: 1452
GlyphClass: 2
Flags: HMW
LayerCount: 2
Fore
SplineSet
1069 1759 m 1
 478 -300 l 1
 345 -300 l 1
 936 1759 l 1
 1069 1759 l 1
EndSplineSet
Refer: 51 79 N 1 0 0 1 0 0 3
EndChar

StartChar: Thorn
Encoding: 222 222 160
Width: 1305
GlyphClass: 2
Flags: HMW
LayerCount: 2
Fore
SplineSet
708 1299 m 2
 870 1299 984 1275 1049 1227 c 0
 1133 1165 1175 1038 1175 847 c 128
 1175 656 1131 529 1043 468 c 0
 990 431 930 410 864 405 c 128
 798 400 743 398 696 398 c 2
 377 398 l 1
 377 0 l 1
 179 0 l 1
 179 1498 l 1
 377 1498 l 1
 377 1299 l 1
 708 1299 l 2
690 559 m 2
 817 559 893 572 920 599 c 128
 979 657 979 725 979 847 c 128
 979 955 977 1048 927 1096 c 0
 896 1127 819 1142 696 1142 c 2
 377 1142 l 1
 377 559 l 1
 690 559 l 2
EndSplineSet
EndChar

StartChar: germandbls
Encoding: 223 223 161
Width: 1263
GlyphClass: 2
Flags: HMW
LayerCount: 2
Fore
SplineSet
1058 1147 m 0
 1058 944 1009 838 911 828 c 1
 972 825 1024 792 1067 726 c 128
 1110 660 1132 548 1132 390 c 0
 1132 163 1036 37 844 12 c 0
 779 4 706 0 624 0 c 2
 477 0 l 1
 477 157 l 1
 623 157 l 2
 737 157 812 161 849 168 c 128
 886 175 910 195 921 228 c 0
 932 259 937 322 937 415 c 0
 937 426 937 426 937 438 c 0
 936 545 933 611 927 637 c 0
 915 685 889 714 851 725 c 128
 813 736 735 741 616 741 c 2
 512 741 l 1
 512 887 l 1
 598 887 l 2
 697 887 763 890 795 896 c 128
 827 902 846 920 854 946 c 128
 862 972 866 1027 866 1112 c 128
 866 1197 862 1253 855 1280 c 128
 848 1307 831 1325 802 1332 c 128
 773 1339 713 1342 619 1342 c 128
 525 1342 463 1338 433 1330 c 128
 403 1322 385 1303 377 1274 c 128
 369 1245 365 1184 365 1090 c 2
 366 -150 l 1
 169 -150 l 1
 170 1102 l 2
 170 1259 204 1364 273 1418 c 128
 342 1472 456 1499 616 1499 c 128
 776 1499 890 1474 957 1425 c 128
 1024 1376 1058 1283 1058 1147 c 0
EndSplineSet
EndChar

StartChar: ae
Encoding: 230 230 168
Width: 1809
GlyphClass: 2
Flags: HMW
LayerCount: 2
Fore
SplineSet
459 104 m 0
 760.345703125 104 803 193.189453125 803 342 c 2
 803 468.959960938 l 1
 578.692382812 459.952148438 445.327148438 443.982421875 406 432 c 1
 311 414 293 403 293 335 c 2
 294 205 l 2
 294 117.3984375 330 104 459 104 c 0
1237 104 m 0
 1421.25195312 104 1477 126 1477 173 c 0
 1477 264.7109375 1476 318.658203125 1475 337 c 1
 1643 327 l 1
 1646 232 1647 183 1647 177 c 0
 1647 7 1491.60742188 -24 1259 -24 c 0
 1043.859375 -24 919.572265625 -6.6552734375 862.758789062 128.4609375 c 1
 793.361328125 -3.2392578125 648.623046875 -24 433 -24 c 0
 204 -24 114 58 114 250 c 0
 114 437 165 524 401 560 c 1
 500.463867188 574 631.010742188 588 803 598 c 1
 803 705.333007812 803 812.666992188 803 920 c 0
 803 984.583007812 735 995 568 995 c 0
 384.041015625 995 333 971.900390625 333 932 c 0
 333 887.705078125 334 846.651367188 337 811 c 1
 172 791 l 1
 164 829 160 850 160 895 c 0
 160 1098 344.107421875 1123 582 1123 c 0
 717.638671875 1123 824.331054688 1103.64746094 895.6953125 1039.07421875 c 1
 962.134765625 1106.6953125 1068.01074219 1123 1225 1123 c 0
 1549.5546875 1123 1660 1075 1660 767 c 2
 1660 555 l 1
 998 555 l 1
 998 440.333007812 998 325.666992188 998 211 c 0
 998 119 1051.30859375 104 1237 104 c 0
998 890 m 0
 998 809.333007812 998 728.666992188 998 648 c 1
 1465 648 l 1
 1465 890 l 2
 1465 980.587890625 1401.70703125 995 1226 995 c 0
 1036 995 998 983.676757812 998 890 c 0
EndSplineSet
EndChar

StartChar: eth
Encoding: 240 240 178
Width: 1236
GlyphClass: 2
Flags: HMW
LayerCount: 2
Back
SplineSet
602.486328125 -181 m 260
 263.486328125 -181 143.486328125 -134 143.486328125 179 c 6
 143.486328125 610 l 6
 143.486328125 919 263.486328125 966 602.486328125 966 c 4
 938.486328125 966 1062.48632812 920 1062.48632812 610 c 6
 1062.48632812 185 l 6
 1062.48632812 -131 946.486328125 -181 602.486328125 -181 c 260
865.486328125 735 m 6
 865.486328125 843.15 772.486328125 838 602.486328125 838 c 4
 438.486328125 838 338.486328125 842.12 338.486328125 735 c 6
 338.486328125 39 l 6
 338.486328125 -51.9662921348 429.486328125 -53 602.486328125 -53 c 4
 785.486328125 -53 865.486328125 -41.6451612903 865.486328125 43 c 6
 865.486328125 735 l 6
EndSplineSet
Fore
SplineSet
288.02734375 1360 m 17
 804.05859375 1310.93652344 885.02734375 1286.18652344 885.02734375 816 c 1
 865.677734375 916 744.3046875 966 520.02734375 966 c 0
 213.669921875 966 111.815429688 853.204101562 109.259765625 598.900390625 c 2
 108.02734375 390.900390625 l 2
 106.036132812 54.7548828125 212.02734375 -24 615.02734375 -24 c 0
 974.610351562 -24 1083.02734375 63 1083.02734375 457 c 2
 1083.02734375 764.900390625 l 2
 1083.02734375 1490.25488281 675.747070312 1466.86816406 314.02734375 1497 c 9
 288.02734375 1360 l 17
615.02734375 837.900390625 m 128
 862.920898438 837.900390625 885.02734375 783.34765625 885.02734375 650.900390625 c 130
 885.02734375 211.80078125 l 2
 885.02734375 118.668945312 883.337890625 103.900390625 613.02734375 103.900390625 c 128
 336.31640625 103.900390625 301.462890625 111.786132812 301.475585938 213.80078125 c 2
 301.536132812 713.80078125 l 2
 301.55078125 829.359375 337.98828125 837.900390625 615.02734375 837.900390625 c 128
963.02734375 1557 m 1
 541.02734375 1135 l 1
 601.02734375 1075 l 1
 1023.02734375 1497 l 1
 963.02734375 1557 l 1
EndSplineSet
EndChar

StartChar: oslash
Encoding: 248 248 186
Width: 1196
GlyphClass: 2
Flags: HMW
LayerCount: 2
Fore
SplineSet
802 1299 m 1
 481 -200 l 1
 388 -200 l 1
 709 1299 l 1
 802 1299 l 1
EndSplineSet
Refer: 83 111 N 1 0 0 1 -3 0 2
EndChar

StartChar: thorn
Encoding: 254 254 192
Width: 1236
GlyphClass: 2
Flags: HMW
LayerCount: 2
Fore
SplineSet
731 1180 m 0
 987 1180 1086 1066 1086 808 c 2
 1086 387 l 2
 1086 236 1063 130 1016 68 c 128
 969 6 882 -24 755 -24 c 0
 539 -24 412 19 373 105 c 1
 373 -402 l 1
 179 -402 l 1
 179 1594 l 1
 372 1594 l 1
 372 1053 l 1
 397 1138 517 1180 731 1180 c 0
620 1018 m 128
 541 1018 484 1015 450 1008 c 128
 416 1001 394 985 386 959 c 128
 378 933 373 880 373 799 c 2
 373 342 l 2
 373 245 382 188 398 172 c 128
 414 156 437 147 468 144 c 128
 499 141 556 139 637 139 c 128
 718 139 776 142 811 148 c 128
 846 154 867 169 876 193 c 128
 885 217 890 267 890 342 c 2
 890 799 l 2
 890 907 882 970 864 986 c 128
 846 1002 821 1011 788 1014 c 128
 755 1017 699 1018 620 1018 c 128
EndSplineSet
EndChar

StartChar: Hbar
Encoding: 294 294 222
Width: 1428
GlyphClass: 2
Flags: HMW
LayerCount: 2
Fore
SplineSet
1134 1190 m 5
 1134 1063 l 5
 277 1063 l 1
 277 1190 l 1
 1134 1190 l 5
EndSplineSet
Refer: 44 72 N 1 0 0 1 0 0 3
EndChar

StartChar: dotlessi
Encoding: 305 305 233
Width: 531
GlyphClass: 2
Flags: HMW
LayerCount: 2
Fore
SplineSet
360 1147 m 1
 360 0 l 1
 164 0 l 1
 164 1147 l 1
 360 1147 l 1
EndSplineSet
EndChar

StartChar: Lslash
Encoding: 321 321 249
Width: 1059
GlyphClass: 2
Flags: HMW
LayerCount: 2
Fore
SplineSet
222 0 m 1
 222 632 l 1
 89 568 l 1
 89 754 l 1
 222 818 l 1
 222 1499 l 1
 424 1499 l 1
 424 915 l 1
 723 1054 l 1
 723 868 l 1
 424 729 l 1
 424 164 l 1
 974 164 l 1
 974 0 l 1
 222 0 l 1
EndSplineSet
EndChar

StartChar: lslash
Encoding: 322 322 250
Width: 719
GlyphClass: 2
Flags: HMW
LayerCount: 2
Fore
SplineSet
435 0 m 1
 241 0 l 1
 241 660 l 1
 79 568 l 1
 79 754 l 1
 241 846 l 1
 241 1552 l 1
 435 1552 l 1
 435 956 l 1
 607 1054 l 1
 607 868 l 1
 435 770 l 1
 435 0 l 1
EndSplineSet
EndChar

StartChar: OE
Encoding: 338 338 263
Width: 2075
GlyphClass: 2
Flags: HMW
LayerCount: 2
Fore
SplineSet
1939 1499 m 1
 1939 1339 l 1
 1292 1339 l 1
 1292 863 l 1
 1858 863 l 1
 1858 703 l 1
 1292 703 l 1
 1292 160 l 1
 1955 160 l 1
 1955 0 l 1
 720 0 l 2
 543 0 420 10 350 28 c 128
 280 46 229 95 196 176 c 128
 163 257 147 397 147 594 c 2
 147 903 l 2
 147 1101 163 1241 196 1322 c 128
 229 1403 281 1453 352 1472 c 128
 423 1491 519 1500 640 1500 c 2
 923 1500 l 1
 1286 1499 l 2
 1613 1499 1613 1499 1939 1499 c 1
1092 160 m 1
 1092 1341 l 1
 720 1341 l 2
 582 1341 497 1336 464 1327 c 128
 395 1307 373 1276 356 1202 c 128
 347 1164 343 1064 343 903 c 2
 343 594 l 2
 343 445 346 344 354 290 c 128
 362 236 382 201 412 184 c 128
 442 167 504 159 599 159 c 2
 909 159 l 1
 1053 160 l 2
 1073 160 1073 160 1092 160 c 1
EndSplineSet
EndChar

StartChar: oe
Encoding: 339 339 264
Width: 1894
GlyphClass: 2
Flags: HMW
LayerCount: 2
Fore
SplineSet
853 892 m 2
 853 1000.15039062 760 995 590 995 c 0
 426 995 326 999.120117188 326 892 c 2
 326 196 l 2
 326 105.034179688 417 104 590 104 c 0
 773 104 853 115.354492188 853 200 c 2
 853 892 l 2
590 -24 m 0
 251 -24 131 23 131 336 c 2
 131 767 l 2
 131 1076 251 1123 590 1123 c 0
 761.52734375 1123 877.563476562 1110.90722656 949.920898438 1057.33691406 c 1
 1020.92578125 1110.30273438 1134.9765625 1123 1305 1123 c 0
 1633.28515625 1123 1745 1075 1745 767 c 2
 1745 555 l 1
 1048 555 l 1
 1048 440.333007812 1048 211 1048 211 c 2
 1048 119 1108 104 1317 104 c 0
 1505.09082031 104 1562 126 1562 173 c 0
 1562 264.7109375 1561 318.658203125 1560 337 c 1
 1728 327 l 1
 1731 232 1732 183 1732 177 c 0
 1732 7 1574.60449219 -24 1339 -24 c 0
 1153.03222656 -24 1027.69824219 -15.017578125 950.951171875 43.10546875 c 1
 879.512695312 -11.083984375 764.076171875 -24 590 -24 c 0
1048 890 m 2
 1048 648 l 1
 1550 648 l 1
 1550 890 l 2
 1550 980.587890625 1485.38378906 995 1306 995 c 0
 1091 995 1048 983.676757812 1048 890 c 2
EndSplineSet
EndChar

StartChar: florin
Encoding: 402 402 298
Width: 716
GlyphClass: 2
Flags: HMW
LayerCount: 2
Fore
SplineSet
435 1579 m 128
 482 1579 540 1573 610 1561 c 1
 610 1412 l 1
 411 1412 l 1
 411 855 l 1
 606 855 l 1
 606 736 l 1
 411 736 l 1
 411 -50 l 2
 411 -84 410 -117 408 -148 c 0
 399 -257 325 -312 186 -312 c 0
 143 -312 87 -306 20 -294 c 1
 20 -145 l 1
 217 -145 l 1
 217 736 l 1
 54 736 l 1
 54 855 l 1
 217 855 l 1
 215 1271 l 2
 215 1375 224 1444 243 1479 c 128
 279 1545 336 1579 435 1579 c 128
EndSplineSet
EndChar

StartChar: uni0237
Encoding: 567 567 301
Width: 514
GlyphClass: 2
Flags: HMW
LayerCount: 2
Fore
SplineSet
341 -49 m 2
 341 -202 285 -311 147 -311 c 128
 88 -311 34 -306 -16 -297 c 1
 -19 -156 l 1
 148 -156 l 1
 148 1147 l 1
 341 1147 l 1
 341 -49 l 2
EndSplineSet
EndChar

StartChar: circumflex
Encoding: 710 710 302
Width: 805
GlyphClass: 2
Flags: HMW
LayerCount: 2
Fore
SplineSet
687 1440 m 0
 687 1414 675 1401 650 1401 c 0
 639 1401 628 1406 616 1416 c 1
 409 1627 l 1
 202 1416 l 1
 190 1406 179 1401 169 1401 c 0
 144 1401 131 1414 131 1441 c 0
 131 1454 135 1468 144 1481 c 2
 315 1754 l 2
 333 1783 364 1798 409 1798 c 0
 453 1798 484 1783 503 1754 c 2
 673 1481 l 2
 682 1466 687 1453 687 1440 c 0
EndSplineSet
EndChar

StartChar: caron
Encoding: 711 711 303
Width: 714
GlyphClass: 2
Flags: HMW
LayerCount: 2
Fore
SplineSet
85 1626 m 0
 85 1653 97 1666 122 1666 c 0
 132 1666 143 1661 155 1651 c 1
 362 1440 l 1
 569 1651 l 1
 582 1661 593 1666 604 1666 c 0
 628 1666 640 1653 640 1626 c 0
 640 1615 636 1601 627 1586 c 2
 456 1313 l 2
 439 1284 408 1269 363 1269 c 0
 318 1269 286 1284 268 1313 c 2
 97 1586 l 2
 89 1599 85 1612 85 1626 c 0
EndSplineSet
EndChar

StartChar: breve
Encoding: 728 728 304
Width: 761
GlyphClass: 2
Flags: HMW
LayerCount: 2
Fore
SplineSet
387 1574 m 0
 513 1574 541 1618 541 1748 c 1
 683 1748 l 1
 683 1589 627 1495 516 1464 c 0
 479 1453 424 1448 350 1448 c 128
 276 1448 214 1471 165 1516 c 128
 116 1561 92 1638 92 1748 c 1
 234 1748 l 1
 233 1744 233 1740 233 1736 c 0
 233 1615 266 1574 387 1574 c 0
EndSplineSet
EndChar

StartChar: dotaccent
Encoding: 729 729 305
Width: 467
GlyphClass: 2
Flags: HMW
LayerCount: 2
Fore
SplineSet
138 1207 m 1
 139 1435 l 1
 335 1435 l 1
 336 1207 l 1
 138 1207 l 1
EndSplineSet
EndChar

StartChar: ring
Encoding: 730 730 306
Width: 765
GlyphClass: 2
Flags: HMW
LayerCount: 2
Fore
SplineSet
382 656 m 128
 530 656 640 555 640 402 c 0
 640 249 532 148 384 148 c 0
 314 148 254 170 203 215 c 128
 152 260 127 322 127 402 c 128
 127 555 234 656 382 656 c 128
368 538 m 128
 309 538 267 469 267 402 c 0
 267 311 310 265 395 265 c 0
 454 265 497 333 497 400 c 0
 497 482 455 538 368 538 c 128
EndSplineSet
EndChar

StartChar: ogonek
Encoding: 731 731 307
Width: 734
GlyphClass: 2
Flags: HMW
LayerCount: 2
Fore
SplineSet
322 -557 m 0
 187 -557 120 -508 120 -409 c 0
 120 -292 201 -162 363 -17 c 2
 382 0 l 1
 490 0 l 1
 406 -86 350 -175 322 -266 c 0
 313 -294 309 -319 309 -341 c 0
 309 -400 337 -429 393 -429 c 0
 434 -429 473 -420 510 -401 c 128
 547 -382 569 -373 576 -373 c 0
 601 -373 614 -387 614 -414 c 0
 614 -462 558 -503 447 -536 c 0
 398 -550 357 -557 322 -557 c 0
EndSplineSet
EndChar

StartChar: tilde
Encoding: 732 732 308
Width: 1015
GlyphClass: 2
Flags: HMW
LayerCount: 2
Fore
SplineSet
654 379 m 0
 537.356445312 379 389.237304688 512 280 512 c 128
 215.041015625 512 181.479492188 481.020507812 149 443 c 128
 142 437 136 434 128 434 c 128
 120 434 116 439 116 449 c 0
 116 468 127 493 148 523 c 0
 207.196289062 614 274.588867188 660 352 660 c 0
 472.051757812 660 634.154296875 534 737 534 c 128
 799.463867188 534 836 567.384765625 869 596 c 128
 876 602 884 605 892 605 c 128
 900 605 903 598 903 584 c 128
 903 570 892 549 869 520 c 0
 801.297851562 426 729.936523438 379 654 379 c 0
EndSplineSet
EndChar

StartChar: hungarumlaut
Encoding: 733 733 309
Width: 1145
GlyphClass: 2
Flags: HMW
LayerCount: 2
Fore
SplineSet
526 1640 m 128
 575 1640 610 1584 610 1528 c 128
 610 1493 587 1463 542 1438 c 1
 528 1427 460 1399 337 1356 c 128
 214 1313 148 1292 137 1292 c 128
 126 1292 120 1297 120 1308 c 128
 120 1319 123 1327 129 1332 c 128
 135 1337 143 1346 154 1357 c 0
 323 1530 432 1623 479 1636 c 0
 491 1639 507 1640 526 1640 c 128
965 1640 m 128
 1022 1640 1058 1590 1058 1529 c 128
 1058 1494 1035 1464 990 1438 c 1
 976 1426 907 1399 785 1356 c 128
 663 1313 597 1292 585 1292 c 128
 573 1292 567 1297 567 1308 c 128
 567 1319 571 1328 577 1334 c 128
 583 1340 607 1363 649 1405 c 128
 708 1464 830 1580 895 1620 c 128
 917 1633 940 1640 965 1640 c 128
EndSplineSet
EndChar

StartChar: endash
Encoding: 8211 8211 313
Width: 1110
GlyphClass: 2
Flags: HMW
LayerCount: 2
Fore
SplineSet
971 754 m 1
 971 568 l 1
 144 568 l 1
 144 754 l 1
 971 754 l 1
EndSplineSet
EndChar

StartChar: emdash
Encoding: 8212 8212 314
Width: 1892
GlyphClass: 2
Flags: HMW
LayerCount: 2
Fore
SplineSet
1753 754 m 1
 1753 568 l 1
 144 568 l 1
 144 754 l 1
 1753 754 l 1
EndSplineSet
EndChar

StartChar: quoteleft
Encoding: 8216 8216 315
Width: 545
GlyphClass: 2
Flags: HMW
LayerCount: 2
Fore
SplineSet
281 1000 m 0
 179 1000 128 1067 128 1202 c 0
 128 1291 156 1372 213 1444 c 128
 270 1516 341 1552 426 1552 c 1
 426 1484 l 1
 339 1484 289 1384 289 1285 c 1
 377 1285 421 1235 421 1135 c 0
 421 1106 408 1077 383 1046 c 128
 358 1015 324 1000 281 1000 c 0
EndSplineSet
EndChar

StartChar: quoteright
Encoding: 8217 8217 316
Width: 543
GlyphClass: 2
Flags: HMW
LayerCount: 2
Fore
SplineSet
297 1552 m 128
 382 1552 431 1463 431 1350 c 0
 431 1262 402 1182 345 1109 c 128
 288 1036 217 1000 132 1000 c 1
 132 1068 l 1
 221 1068 269 1166 269 1267 c 1
 181 1267 137 1317 137 1417 c 0
 137 1446 149 1475 175 1506 c 128
 201 1537 242 1552 297 1552 c 128
EndSplineSet
EndChar

StartChar: quotesinglbase
Encoding: 8218 8218 317
Width: 426
GlyphClass: 2
Flags: HMW
LayerCount: 2
Fore
SplineSet
204 300 m 128
 294 300 302 263 302 154 c 128
 302 87 291 6 270 -90 c 128
 249 -186 237 -240 234 -254 c 128
 231 -268 223 -275 211 -275 c 0
 206 -275 191 -225 166 -125 c 128
 141 -25 128 57 128 122 c 128
 128 187 130 228 135 244 c 0
 146 281 169 300 204 300 c 128
EndSplineSet
EndChar

StartChar: quotedblleft
Encoding: 8220 8220 318
Width: 1025
GlyphClass: 2
Flags: HMW
LayerCount: 2
Fore
SplineSet
281 1000 m 0
 179 1000 128 1067 128 1202 c 0
 128 1291 156 1372 213 1444 c 128
 270 1516 342 1552 428 1552 c 1
 428 1484 l 1
 339 1484 289 1385 289 1285 c 1
 378 1285 423 1235 423 1135 c 0
 423 1106 411 1077 385 1046 c 128
 359 1015 324 1000 281 1000 c 0
743 1000 m 128
 659 1000 606 1089 606 1202 c 0
 606 1291 635 1372 693 1444 c 128
 751 1516 821 1552 906 1552 c 1
 906 1484 l 1
 819 1484 770 1385 770 1285 c 1
 857 1285 901 1235 901 1135 c 0
 901 1106 888 1077 863 1046 c 128
 838 1015 798 1000 743 1000 c 128
EndSplineSet
EndChar

StartChar: quotedblright
Encoding: 8221 8221 319
Width: 1023
GlyphClass: 2
Flags: HMW
LayerCount: 2
Fore
SplineSet
777 1552 m 128
 862 1552 911 1463 911 1350 c 0
 911 1261 882 1180 825 1108 c 128
 768 1036 696 1000 611 1000 c 1
 611 1068 l 1
 701 1068 749 1165 749 1267 c 1
 660 1267 616 1317 616 1417 c 0
 616 1446 629 1475 655 1506 c 128
 681 1537 722 1552 777 1552 c 128
297 1552 m 128
 381 1552 434 1463 434 1350 c 0
 434 1262 405 1182 347 1109 c 128
 289 1036 217 1000 132 1000 c 1
 132 1068 l 1
 221 1068 269 1166 269 1267 c 1
 181 1267 137 1317 137 1417 c 0
 137 1446 149 1475 175 1506 c 128
 201 1537 242 1552 297 1552 c 128
EndSplineSet
EndChar

StartChar: quotedblbase
Encoding: 8222 8222 320
Width: 710
GlyphClass: 2
Flags: HMW
LayerCount: 2
Fore
SplineSet
214 300 m 0
 296 300 302 258 302 152 c 128
 302 84 290 -1 267 -102 c 128
 241 -216 237 -251 228 -270 c 128
 226 -274 223 -275 216 -275 c 128
 209 -275 206 -274 204 -271 c 128
 202 -268 188 -218 164 -121 c 128
 140 -24 128 57 128 122 c 128
 128 187 130 228 135 244 c 0
 144 281 171 300 214 300 c 0
497 -275 m 256
 489 -275 485 -273 485 -268 c 0
 485 -262 473 -210 449 -113 c 0
 425 -15 413 65 413 126 c 128
 413 219 409 250 443 284 c 128
 454 295 470 300 491 300 c 0
 528 300 553 293 566 278 c 128
 579 263 586 216 586 136 c 128
 586 56 574 -30 550 -124 c 128
 526 -218 514 -267 512 -270 c 128
 510 -273 505 -275 497 -275 c 256
EndSplineSet
EndChar

StartChar: dagger
Encoding: 8224 8224 321
Width: 847
GlyphClass: 2
Flags: HMW
LayerCount: 2
Fore
SplineSet
834 959 m 0
 834 899 788 865 718 865 c 128
 675 865 592 890 467 939 c 1
 499 595 522 331 537 146 c 1
 537 54 502 8 431 8 c 256
 360 8 325 54 325 146 c 1
 354 497 355 513 394 939 c 1
 385 936 352 923 294 900 c 128
 236 877 186 865 143 865 c 0
 66 865 28 901 28 972 c 0
 28 1031 60 1084 118 1084 c 128
 227 1084 318 1037 398 1007 c 1
 353 1209 331 1340 331 1398 c 128
 331 1456 342 1496 362 1518 c 128
 382 1540 405 1552 431 1552 c 0
 474 1552 504 1529 522 1482 c 0
 528 1465 531 1434 531 1390 c 128
 531 1346 508 1218 462 1007 c 1
 592 1058 682 1084 733 1084 c 0
 800 1084 834 1042 834 959 c 0
EndSplineSet
EndChar

StartChar: daggerdbl
Encoding: 8225 8225 322
Width: 1053
GlyphClass: 2
Flags: HMW
LayerCount: 2
Fore
SplineSet
533 1552 m 0
 619 1552 680 1497 680 1402 c 128
 680 1340 665 1283 650 1230 c 128
 634 1171 612 1105 596 1047 c 1
 739 1105 831 1134 874 1134 c 0
 953 1134 992 1089 992 1000 c 0
 992 934 939 895 862 895 c 128
 814 895 725 923 596 979 c 1
 596 535 l 1
 730 591 820 619 865 619 c 128
 947 619 992 576 992 500 c 128
 992 437 949 381 887 381 c 128
 770 381 682 433 596 467 c 1
 604 436 620 383 644 308 c 128
 668 233 680 168 680 114 c 128
 680 18 622 -38 533 -38 c 0
 445 -38 385 17 385 112 c 128
 385 210 417 293 442 374 c 128
 452 406 460 436 469 467 c 1
 338 410 249 381 202 381 c 128
 119 381 72 423 72 500 c 0
 72 579 116 619 203 619 c 0
 250 619 339 591 469 535 c 1
 469 979 l 1
 336 923 247 895 201 895 c 0
 115 895 72 934 72 1013 c 0
 72 1090 118 1134 201 1134 c 128
 247 1134 336 1105 469 1047 c 1
 461 1076 445 1129 421 1206 c 128
 397 1283 385 1348 385 1400 c 128
 385 1495 444 1552 533 1552 c 0
EndSplineSet
EndChar

StartChar: bullet
Encoding: 8226 8226 323
Width: 913
GlyphClass: 2
Flags: HMW
LayerCount: 2
Fore
SplineSet
468 1030 m 0
 575 1030 658 994 715 922 c 128
 772 850 801 764 801 664 c 256
 801 564 772 478 714 406 c 128
 656 334 573 298 466 298 c 0
 358 298 273 334 212 406 c 128
 151 478 120 563 120 662 c 0
 120 760 151 846 212 920 c 128
 273 994 359 1030 468 1030 c 0
EndSplineSet
EndChar

StartChar: ellipsis
Encoding: 8230 8230 324
Width: 1623
GlyphClass: 2
Flags: HMW
LayerCount: 2
Fore
SplineSet
260 -37 m 0
 176 -37 119 31 119 117 c 0
 119 202 168 271 260 271 c 0
 343 271 400 203 400 117 c 0
 400 34 352 -37 260 -37 c 0
672 118 m 128
 672 204 728 271 812 271 c 0
 893 271 953 212 953 117 c 0
 953 34 906 -37 814 -37 c 0
 731 -37 672 33 672 118 c 128
1366 -37 m 0
 1286 -37 1226 21 1226 117 c 0
 1226 211 1276 271 1380 271 c 128
 1451 271 1506 195 1506 117 c 0
 1506 34 1458 -37 1366 -37 c 0
EndSplineSet
EndChar

StartChar: guilsinglleft
Encoding: 8249 8249 325
Width: 740
GlyphClass: 2
Flags: HMW
LayerCount: 2
Fore
SplineSet
580 1254 m 0
 621 1254 642 1232 642 1188 c 0
 642 1171 634 1147 619 1116 c 1
 291 716 l 1
 619 316 l 1
 634 287 642 263 642 245 c 0
 642 200 620 178 577 178 c 0
 555 178 535 186 517 202 c 1
 136 574 l 2
 96 613 76 660 76 716 c 128
 76 772 96 819 136 858 c 2
 517 1229 l 1
 540 1246 561 1254 580 1254 c 0
EndSplineSet
EndChar

StartChar: guilsinglright
Encoding: 8250 8250 326
Width: 744
GlyphClass: 2
Flags: HMW
LayerCount: 2
Fore
SplineSet
110 1185 m 0
 110 1231 131 1254 172 1254 c 0
 192 1254 213 1246 235 1229 c 1
 616 858 l 2
 656 819 676 772 676 716 c 0
 676 661 656 614 616 574 c 2
 235 202 l 2
 218 186 199 178 176 178 c 0
 132 178 110 201 110 247 c 0
 110 266 118 289 133 316 c 1
 460 716 l 1
 133 1116 l 1
 118 1144 110 1167 110 1185 c 0
EndSplineSet
EndChar

StartChar: fraction
Encoding: 8260 8260 327
Width: 727
GlyphClass: 2
Flags: HMW
LayerCount: 2
Fore
SplineSet
717 1499 m 1
 121 0 l 1
 -3 0 l 1
 590 1499 l 1
 717 1499 l 1
EndSplineSet
EndChar

StartChar: Euro
Encoding: 8364 8364 328
Width: 1441
GlyphClass: 2
Flags: HMW
LayerCount: 2
Fore
SplineSet
984 650 m 1
 984 549 l 1
 70 549 l 1
 70 650 l 1
 984 650 l 1
70 823 m 1
 70 927 l 1
 984 928 l 1
 984 824 l 1
 70 823 l 1
1331 1166 m 128
 1331 1099 1328 1037 1323 980 c 1
 1140 980 l 1
 1139 1125 1135 1213 1128 1244 c 128
 1114 1306 1091 1332 1031 1348 c 128
 1002 1356 940 1360 845 1360 c 128
 750 1360 682 1359 640 1358 c 128
 564 1356 503 1345 470 1304 c 128
 455 1286 444 1255 435 1213 c 128
 426 1171 422 1068 422 903 c 2
 422 594 l 2
 422 430 426 326 435 284 c 128
 451 204 471 173 542 153 c 128
 574 144 638 139 735 139 c 128
 832 139 900 139 939 140 c 128
 1050 143 1108 165 1128 259 c 128
 1135 291 1139 384 1140 537 c 1
 1323 537 l 1
 1326 467 1328 408 1328 360 c 0
 1328 151 1258 30 1117 -1 c 1
 1028 -20 932 -29 829 -29 c 0
 701 -29 486 -6 446 6 c 0
 363 31 305 87 272 172 c 128
 239 257 222 398 222 594 c 2
 222 903 l 2
 222 1094 238 1234 270 1320 c 128
 302 1406 354 1461 427 1486 c 128
 500 1511 599 1523 726 1523 c 128
 853 1523 952 1520 1024 1512 c 128
 1163 1497 1253 1450 1298 1344 c 128
 1320 1293 1331 1233 1331 1166 c 128
EndSplineSet
EndChar

StartChar: trademark
Encoding: 8482 8482 329
Width: 1144
GlyphClass: 2
Flags: HMW
LayerCount: 2
Fore
SplineSet
437.73046875 1521 m 1
 437.73046875 1447.85546875 l 1
 316.0703125 1447.85546875 l 1
 316.0703125 990.249023438 l 1
 214.26953125 990.249023438 l 1
 214.26953125 1447.85546875 l 1
 92 1447.85546875 l 1
 92 1521 l 1
 437.73046875 1521 l 1
610.450195312 990.249023438 m 1
 524.259765625 990.249023438 l 1
 524.259765625 1521 l 1
 642.870117188 1521 l 1
 767.290039062 1131.875 l 1
 883.01953125 1521 l 1
 1002.3203125 1521 l 1
 1002.3203125 990.249023438 l 1
 906.129882812 990.249023438 l 1
 906.129882812 1346.17773438 l 1
 799.099609375 990.249023438 l 1
 715.169921875 990.249023438 l 1
 610.450195312 1346.17773438 l 1
 610.450195312 990.249023438 l 1
EndSplineSet
EndChar

StartChar: uniF6C3
Encoding: 63171 63171 330
Width: 699
GlyphClass: 2
Flags: HMW
LayerCount: 2
Fore
SplineSet
341 -140 m 0
 447 -140 513 -226 513 -356 c 0
 513 -444 483 -522 423 -590 c 128
 363 -658 289 -691 200 -691 c 1
 200 -631 l 1
 279 -628 328 -555 328 -466 c 1
 233 -461 186 -404 186 -296 c 0
 186 -264 201 -230 229 -194 c 128
 257 -158 294 -140 341 -140 c 0
EndSplineSet
EndChar

StartChar: uniFB01
Encoding: 64257 64257 331
Width: 1211
GlyphClass: 2
Flags: HMW
LayerCount: 2
Fore
SplineSet
209 1350 m 0
 209 1507 264 1579 423 1579 c 128
 480 1579 549 1573 629 1561 c 1
 629 1412 l 1
 406 1412 l 1
 406 1147 l 1
 1033 1147 l 1
 1033 0 l 1
 837 0 l 1
 837 1028 l 1
 406 1028 l 1
 406 0 l 1
 211 0 l 1
 211 1028 l 1
 83 1028 l 1
 83 1147 l 1
 211 1147 l 1
 211 1218 210 1280 209 1334 c 0
 209 1342 209 1342 209 1350 c 0
1033 1384 m 1
 837 1384 l 1
 837 1571 l 1
 1033 1571 l 1
 1033 1384 l 1
EndSplineSet
EndChar

StartChar: uniFB02
Encoding: 64258 64258 332
Width: 1199
GlyphClass: 2
Flags: HMW
LayerCount: 2
Fore
SplineSet
676 1576 m 128
 792 1576 908 1571 1023 1561 c 1
 1022 0 l 1
 828 0 l 1
 828 1412 l 1
 406 1412 l 1
 406 1147 l 1
 607 1147 l 1
 607 1028 l 1
 406 1028 l 1
 406 0 l 1
 211 0 l 1
 211 1028 l 1
 83 1028 l 1
 83 1147 l 1
 211 1147 l 1
 210 1220 l 1
 209 1316 l 2
 209 1393 214 1444 224 1468 c 128
 255 1547 330 1563 436 1571 c 128
 479 1574 560 1576 676 1576 c 128
EndSplineSet
EndChar

StartChar: uni0326
Encoding: 806 806 333
Width: 699
GlyphClass: 2
Flags: HMW
LayerCount: 2
Fore
SplineSet
341 -140 m 0
 447 -140 513 -226 513 -356 c 0
 513 -444 483 -522 423 -590 c 128
 363 -658 289 -691 200 -691 c 1
 200 -631 l 1
 279 -628 328 -555 328 -466 c 1
 233 -461 186 -404 186 -296 c 0
 186 -264 201 -230 229 -194 c 128
 257 -158 294 -140 341 -140 c 0
EndSplineSet
EndChar

